<svg width="700" height="363" viewBox="0 0 700 363" fill="none" xmlns="http://www.w3.org/2000/svg">
<g id="title" clip-path="url(#clip0)">
<rect width="700" height="363" fill="white"/>
<path id="Vector 74" d="M0 36.5C0 36.5 44.3229 74.7086 75.5 78C115.024 82.1727 128.098 40.2406 166.5 30C204 20 305 65.9999 357.5 43C390.681 28.4637 537 11 581 43C606.686 61.681 620.5 83 612.5 115C606.196 140.218 596 169.5 561.5 174C517.935 179.682 491.5 108 442 124C394.412 139.382 407.512 174 357.5 174C328 174 300.5 98 268 98C245.189 98 225.822 119.68 216.5 140.5C201.5 174 142.5 127 126.5 181.5C119.084 206.762 47 181.5 40.5 234C36.6323 265.239 46 310 89 310C130.665 310 210.835 324.5 252.5 324.5C303 324.5 353.152 326.27 395 306C427 290.5 437.373 266.067 469.5 278C504.5 291 531 243.368 581 261.5C626.5 278 619 329 699 329" stroke="#E5E5E5" stroke-width="3" stroke-dasharray="10 10"/>
<g id="Linked Path Group">
<text id="[Copy] Continue" transform="translate(171.186 -23.1158) rotate(5.92473)" fill="#6765E6" stroke="white" stroke-width="2" xml:space="preserve" style="white-space: pre" font-family="National 2" font-size="80" font-weight="bold" letter-spacing="0em"><tspan x="0.226562" y="78.8">C</tspan></text>
<text id="[Copy] Continue_2" transform="translate(226.972 -15.8457) rotate(11.9079)" fill="#6765E6" stroke="white" stroke-width="2" xml:space="preserve" style="white-space: pre" font-family="National 2" font-size="80" font-weight="bold" letter-spacing="0em"><tspan x="0.226562" y="78.8">o</tspan></text>
<text id="[Copy] Continue_3" transform="translate(269.255 -6.31641) rotate(8.4103)" fill="#6765E6" stroke="white" stroke-width="2" xml:space="preserve" style="white-space: pre" font-family="National 2" font-size="80" font-weight="bold" letter-spacing="0em"><tspan x="0.210938" y="78.8">n</tspan></text>
<text id="[Copy] Continue_4" transform="translate(306.955 0.198364) rotate(-2.42193)" fill="#6765E6" stroke="white" stroke-width="2" xml:space="preserve" style="white-space: pre" font-family="National 2" font-size="80" font-weight="bold" letter-spacing="0em"><tspan x="0.28125" y="78.8">t</tspan></text>
<text id="[Copy] Continue_5" transform="translate(326.048 1.52856) rotate(-20.6038)" fill="#6765E6" stroke="white" stroke-width="2" xml:space="preserve" style="white-space: pre" font-family="National 2" font-size="80" font-weight="bold" letter-spacing="0em"><tspan x="0.132812" y="78.8">i</tspan></text>
<text id="[Copy] Continue_6" transform="translate(355.39 -9.92896) rotate(-11.1121)" fill="#6765E6" stroke="white" stroke-width="2" xml:space="preserve" style="white-space: pre" font-family="National 2" font-size="80" font-weight="bold" letter-spacing="0em"><tspan x="0.210938" y="78.8">n</tspan></text>
<text id="[Copy] Continue_7" transform="translate(406.611 -19.6372) rotate(-5.62647)" fill="#6765E6" stroke="white" stroke-width="2" xml:space="preserve" style="white-space: pre" font-family="National 2" font-size="80" font-weight="bold" letter-spacing="0em"><tspan x="0.445312" y="78.8">u</tspan></text>
<text id="[Copy] Continue_8" transform="translate(459.298 -24.6079) rotate(-0.875046)" fill="#6765E6" stroke="white" stroke-width="2" xml:space="preserve" style="white-space: pre" font-family="National 2" font-size="80" font-weight="bold" letter-spacing="0em"><tspan x="0.132812" y="78.8">e</tspan></text>
<text id="[Copy] Continue_9" transform="translate(504 -32.6488) rotate(-0.875046)" fill="#6765E6" stroke="white" stroke-width="2" xml:space="preserve" style="white-space: pre" font-family="National 2" font-size="80" font-weight="bold" letter-spacing="0em"><tspan x="0.210938" y="78.8">,</tspan></text>
<text id="[Copy] Continue_10" transform="translate(545.596 113) rotate(24.5797)" fill="#6765E6" stroke="white" stroke-width="2" xml:space="preserve" style="white-space: pre" font-family="National 2" font-size="80" font-weight="bold" letter-spacing="0em"><tspan x="0.210938" y="78.8">,</tspan></text>
</g>
<g id="Linked Path Group_2">
<text id="[Copy] Pivot" transform="translate(339.389 133.648) rotate(-23.0308)" fill="#6765E6" stroke="white" stroke-width="2" xml:space="preserve" style="white-space: pre" font-family="National 2" font-size="80" font-weight="bold" letter-spacing="0em"><tspan x="0.195312" y="78.8">P</tspan></text>
<text id="[Copy] Pivot_2" transform="translate(363.471 120.845) rotate(-48.1193)" fill="#6765E6" stroke="white" stroke-width="2" xml:space="preserve" style="white-space: pre" font-family="National 2" font-size="80" font-weight="bold" letter-spacing="0em"><tspan x="0.132812" y="78.8">i</tspan></text>
<text id="[Copy] Pivot_3" transform="translate(396.156 88.3112) rotate(-21.8853)" fill="#6765E6" stroke="white" stroke-width="2" xml:space="preserve" style="white-space: pre" font-family="National 2" font-size="80" font-weight="bold" letter-spacing="0em"><tspan x="0.234375" y="78.8">v</tspan></text>
<text id="[Copy] Pivot_4" transform="translate(482.713 73.0055) rotate(27.7689)" fill="#6765E6" stroke="white" stroke-width="2" xml:space="preserve" style="white-space: pre" font-family="National 2" font-size="80" font-weight="bold" letter-spacing="0em"><tspan x="0.226562" y="78.8">o</tspan></text>
<text id="[Copy] Pivot_5" transform="translate(530.843 102.489) rotate(39.8637)" fill="#6765E6" stroke="white" stroke-width="2" xml:space="preserve" style="white-space: pre" font-family="National 2" font-size="80" font-weight="bold" letter-spacing="0em"><tspan x="0.28125" y="78.8">t</tspan></text>
</g>
<g id="Linked Path Group_3">
<text id="[Copy] or Put It Down" transform="translate(92.7347 259.425) rotate(4.31815)" fill="#6765E6" stroke="white" stroke-width="2" xml:space="preserve" style="white-space: pre" font-family="National 2" font-size="80" font-weight="bold" letter-spacing="0em"><tspan x="0.226562" y="78.8">o</tspan></text>
<text id="[Copy] or Put It Down_2" transform="translate(140.46 263.377) rotate(6.58231)" fill="#6765E6" stroke="white" stroke-width="2" xml:space="preserve" style="white-space: pre" font-family="National 2" font-size="80" font-weight="bold" letter-spacing="0em"><tspan x="0.203125" y="78.8">r</tspan></text>
<text id="[Copy] or Put It Down_3" transform="translate(193.133 269.801) rotate(5.66134)" fill="#6765E6" stroke="white" stroke-width="2" xml:space="preserve" style="white-space: pre" font-family="National 2" font-size="80" font-weight="bold" letter-spacing="0em"><tspan x="0.195312" y="78.8">P</tspan></text>
<text id="[Copy] or Put It Down_4" transform="translate(238.019 274.453) rotate(0.146732)" fill="#6765E6" stroke="white" stroke-width="2" xml:space="preserve" style="white-space: pre" font-family="National 2" font-size="80" font-weight="bold" letter-spacing="0em"><tspan x="0.445312" y="78.8">u</tspan></text>
<text id="[Copy] or Put It Down_5" transform="translate(284.482 274.744) rotate(-1.76975)" fill="#6765E6" stroke="white" stroke-width="2" xml:space="preserve" style="white-space: pre" font-family="National 2" font-size="80" font-weight="bold" letter-spacing="0em"><tspan x="0.28125" y="78.8">t</tspan></text>
<text id="[Copy] or Put It Down_6" transform="translate(330.906 272.598) rotate(-10.3745)" fill="#6765E6" stroke="white" stroke-width="2" xml:space="preserve" style="white-space: pre" font-family="National 2" font-size="80" font-weight="bold" letter-spacing="0em"><tspan x="0.0078125" y="78.8">I</tspan></text>
<text id="[Copy] or Put It Down_7" transform="translate(347.053 270.861) rotate(-19.4818)" fill="#6765E6" stroke="white" stroke-width="2" xml:space="preserve" style="white-space: pre" font-family="National 2" font-size="80" font-weight="bold" letter-spacing="0em"><tspan x="0.28125" y="78.8">t</tspan></text>
<text id="[Copy] or Put It Down_8" transform="translate(388.603 247.747) rotate(-27.3475)" fill="#6765E6" stroke="white" stroke-width="2" xml:space="preserve" style="white-space: pre" font-family="National 2" font-size="80" font-weight="bold" letter-spacing="0em"><tspan x="0.460938" y="78.8">D</tspan></text>
<text id="[Copy] or Put It Down_9" transform="translate(457.965 232.775) rotate(-6.0593)" fill="#6765E6" stroke="white" stroke-width="2" xml:space="preserve" style="white-space: pre" font-family="National 2" font-size="80" font-weight="bold" letter-spacing="0em"><tspan x="0.226562" y="78.8">o</tspan></text>
<text id="[Copy] or Put It Down_10" transform="translate(491.725 222.846) rotate(-17.8249)" fill="#6765E6" stroke="white" stroke-width="2" xml:space="preserve" style="white-space: pre" font-family="National 2" font-size="80" font-weight="bold" letter-spacing="0em"><tspan x="0.453125" y="78.8">w</tspan></text>
</g>
<text id="n" transform="translate(583.843 203) rotate(13.7939)" fill="#6765E6" stroke="white" stroke-width="2" xml:space="preserve" style="white-space: pre" font-family="National 2" font-size="80" font-weight="bold" letter-spacing="0em"><tspan x="0.210938" y="78.8">n</tspan></text>
</g>
<defs>
<clipPath id="clip0">
<rect width="700" height="363" fill="white"/>
</clipPath>
</defs>
</svg>
