<svg width="901" height="1165" viewBox="0 0 901 1165" fill="none" xmlns="http://www.w3.org/2000/svg">
<g clip-path="url(#clip0)">
<rect width="900" height="1164.71" transform="translate(0.909088)" fill="white"/>
<rect x="0.909088" width="899.455" height="61.7273" fill="#9897F9"/>
<text fill="black" xml:space="preserve" style="white-space: pre" font-family="National 2" font-size="26.4545" letter-spacing="0em"><tspan x="252.227" y="92.16">Do you have a unique question?</tspan></text>
<text fill="black" xml:space="preserve" style="white-space: pre" font-family="National 2" font-size="38.2121" font-weight="bold" letter-spacing="0em"><tspan x="94.265" y="43.6351">WHEN TO SCRAP A DATA-DRIVEN STORY</tspan></text>
<text fill="black" xml:space="preserve" style="white-space: pre" font-family="National 2 Narrow" font-size="19.1061" letter-spacing="0em"><tspan x="266.924" y="133.32">yes</tspan></text>
<text fill="black" xml:space="preserve" style="white-space: pre" font-family="National 2 Narrow" font-size="19.1061" letter-spacing="0em"><tspan x="142.348" y="217.093">can it be answered </tspan><tspan x="173.022" y="235.093">with data?</tspan></text>
<text fill="black" xml:space="preserve" style="white-space: pre" font-family="National 2 Narrow" font-size="19.1061" letter-spacing="0em"><tspan x="38.5772" y="365.532">come up with a </tspan><tspan x="45.3129" y="383.532">new question</tspan></text>
<text fill="black" xml:space="preserve" style="white-space: pre" font-family="National 2 Narrow" font-size="19.1061" letter-spacing="0em"><tspan x="683.774" y="383.169">come up with a </tspan><tspan x="690.51" y="401.169">new question</tspan></text>
<text fill="black" xml:space="preserve" style="white-space: pre" font-family="National 2 Narrow" font-size="19.1061" letter-spacing="0em"><tspan x="244.827" y="367.002">do the data exist?</tspan></text>
<text fill="black" xml:space="preserve" style="white-space: pre" font-family="National 2 Narrow" font-size="19.1061" letter-spacing="0em"><tspan x="615.242" y="133.32">no</tspan></text>
<text fill="black" xml:space="preserve" style="white-space: pre" font-family="National 2 Narrow" font-size="19.1061" letter-spacing="0em"><tspan x="377.152" y="171.532">not unique, but it adds </tspan><tspan x="377.152" y="189.532">to the conversation</tspan></text>
<text fill="black" xml:space="preserve" style="white-space: pre" font-family="National 2 Narrow" font-size="19.1061" letter-spacing="0em"><tspan x="288.97" y="292.047">yes</tspan></text>
<text fill="black" xml:space="preserve" style="white-space: pre" font-family="National 2 Narrow" font-size="19.1061" letter-spacing="0em"><tspan x="114.076" y="293.517">no</tspan></text>
<text fill="black" xml:space="preserve" style="white-space: pre" font-family="National 2 Narrow" font-size="19.1061" letter-spacing="0em"><tspan x="372.742" y="425.79">yes</tspan></text>
<text fill="black" xml:space="preserve" style="white-space: pre" font-family="National 2 Narrow" font-size="19.1061" letter-spacing="0em"><tspan x="819.53" y="624.199">no</tspan></text>
<text fill="black" xml:space="preserve" style="white-space: pre" font-family="National 2 Narrow" font-size="19.1061" letter-spacing="0em"><tspan x="628.47" y="624.199">not sure</tspan></text>
<text fill="black" xml:space="preserve" style="white-space: pre" font-family="National 2 Narrow" font-size="19.1061" letter-spacing="0em"><tspan x="622.279" y="674.169">ask friends </tspan><tspan x="629.985" y="692.169">or family</tspan></text>
<text fill="black" xml:space="preserve" style="white-space: pre" font-family="National 2 Narrow" font-size="19.1061" letter-spacing="0em"><tspan x="724" y="624.199">yes</tspan></text>
<text fill="black" xml:space="preserve" style="white-space: pre" font-family="National 2 Narrow" font-size="19.1061" letter-spacing="0em"><tspan x="212.545" y="424.32">no</tspan></text>
<text fill="black" xml:space="preserve" style="white-space: pre" font-family="National 2 Narrow" font-size="19.1061" letter-spacing="0em"><tspan x="579.97" y="230.32">start there</tspan></text>
<rect x="166.25" y="979.553" width="111.697" height="35.2727" fill="#9897F9" stroke="#9897F9" stroke-width="1.4697"/>
<text fill="white" xml:space="preserve" style="white-space: pre" font-family="National 2" font-size="20.5758" font-weight="bold" letter-spacing="0em"><tspan x="178.742" y="1003.63">SCRAP IT</tspan></text>
<rect x="383.765" y="1023.64" width="132.273" height="35.2727" fill="#9897F9" stroke="#9897F9" stroke-width="1.4697"/>
<text fill="white" xml:space="preserve" style="white-space: pre" font-family="National 2" font-size="20.5758" font-weight="bold" letter-spacing="0em"><tspan x="396.258" y="1049.2">PUBLISH IT</tspan></text>
<rect x="568.947" y="210.902" width="102.879" height="26.4545" stroke="#9897F9" stroke-width="1.4697"/>
<path d="M623.541 202.603C623.828 202.89 624.293 202.89 624.58 202.603L629.257 197.926C629.544 197.639 629.544 197.174 629.257 196.887C628.97 196.6 628.504 196.6 628.218 196.887L624.061 201.044L619.904 196.887C619.617 196.6 619.151 196.6 618.864 196.887C618.577 197.174 618.577 197.639 618.864 197.926L623.541 202.603ZM623.326 154.318V202.083H624.795V154.318H623.326Z" fill="#9897F9"/>
<path d="M639.675 83.4445C639.407 83.7492 639.437 84.2136 639.742 84.4816L644.709 88.8489C645.013 89.1169 645.478 89.0871 645.746 88.7823C646.014 88.4776 645.984 88.0132 645.679 87.7452L641.264 83.8631L645.146 79.4484C645.414 79.1437 645.385 78.6793 645.08 78.4113C644.775 78.1433 644.311 78.1732 644.043 78.4779L639.675 83.4445ZM684.36 222.573C694.893 216.964 702.359 205.062 706.429 190.602C710.505 176.124 711.212 158.964 708.123 142.66C705.035 126.357 698.142 110.852 686.959 99.7338C675.757 88.5977 660.292 81.9053 640.18 83.1964L640.274 84.6631C659.97 83.3987 675.023 89.9399 685.922 100.776C696.84 111.631 703.63 126.836 706.679 142.933C709.728 159.028 709.025 175.957 705.015 190.204C700.999 204.47 693.704 215.932 683.669 221.276L684.36 222.573Z" fill="#9897F9"/>
<path d="M456.515 124.924H455.78V125.659H456.515V124.924ZM604.004 125.444C604.291 125.157 604.291 124.692 604.004 124.405L599.328 119.728C599.041 119.441 598.576 119.441 598.289 119.728C598.002 120.015 598.002 120.48 598.289 120.767L602.446 124.924L598.289 129.081C598.002 129.368 598.002 129.833 598.289 130.12C598.576 130.407 599.041 130.407 599.328 130.12L604.004 125.444ZM455.78 101.409V124.924H457.25V101.409H455.78ZM456.515 125.659H603.485V124.189H456.515V125.659Z" fill="#9897F9"/>
<path d="M455.996 154.838C456.282 155.125 456.748 155.125 457.035 154.838L461.711 150.161C461.998 149.874 461.998 149.409 461.711 149.122C461.424 148.835 460.959 148.835 460.672 149.122L456.515 153.279L452.358 149.122C452.071 148.835 451.606 148.835 451.319 149.122C451.032 149.409 451.032 149.874 451.319 150.161L455.996 154.838ZM455.78 121.985V154.318H457.25V121.985H455.78Z" fill="#9897F9"/>
<path d="M302.412 124.405C302.125 124.692 302.125 125.157 302.412 125.444L307.089 130.12C307.376 130.407 307.841 130.407 308.128 130.12C308.415 129.833 308.415 129.368 308.128 129.081L303.971 124.924L308.128 120.767C308.415 120.48 308.415 120.015 308.128 119.728C307.841 119.441 307.376 119.441 307.089 119.728L302.412 124.405ZM455.78 124.189H302.932V125.659H455.78V124.189Z" fill="#9897F9"/>
<path d="M202.992 141.826V141.091H202.258V141.826H202.992ZM202.473 190.845C202.76 191.132 203.225 191.132 203.512 190.845L208.189 186.169C208.476 185.882 208.476 185.417 208.189 185.13C207.902 184.843 207.436 184.843 207.149 185.13L202.992 189.287L198.835 185.13C198.549 184.843 198.083 184.843 197.796 185.13C197.509 185.417 197.509 185.882 197.796 186.169L202.473 190.845ZM252.227 141.091H202.992V142.561H252.227V141.091ZM202.258 141.826V190.326H203.727V141.826H202.258Z" fill="#9897F9"/>
<path d="M203.727 286.591H202.992V287.326H203.727V286.591ZM277.732 287.111C278.019 286.824 278.019 286.358 277.732 286.071L273.055 281.395C272.768 281.108 272.303 281.108 272.016 281.395C271.729 281.682 271.729 282.147 272.016 282.434L276.173 286.591L272.016 290.748C271.729 291.035 271.729 291.5 272.016 291.787C272.303 292.074 272.768 292.074 273.055 291.787L277.732 287.111ZM202.992 239.561V286.591H204.462V239.561H202.992ZM203.727 287.326H277.212V285.856H203.727V287.326Z" fill="#9897F9"/>
<path d="M142.215 286.071C141.928 286.358 141.928 286.824 142.215 287.111L146.892 291.787C147.179 292.074 147.644 292.074 147.931 291.787C148.218 291.5 148.218 291.035 147.931 290.748L143.774 286.591L147.931 282.434C148.218 282.147 148.218 281.682 147.931 281.395C147.644 281.108 147.179 281.108 146.892 281.395L142.215 286.071ZM203.727 285.856H142.735V287.326H203.727V285.856Z" fill="#9897F9"/>
<path d="M302.197 417.394H301.462V418.129H302.197V417.394ZM362.974 417.914C363.261 417.627 363.261 417.161 362.974 416.874L358.298 412.198C358.011 411.911 357.545 411.911 357.258 412.198C356.971 412.485 356.971 412.95 357.258 413.237L361.415 417.394L357.258 421.551C356.971 421.838 356.971 422.303 357.258 422.59C357.545 422.877 358.011 422.877 358.298 422.59L362.974 417.914ZM301.462 376.242V417.394H302.932V376.242H301.462ZM302.197 418.129H362.455V416.659H302.197V418.129Z" fill="#9897F9"/>
<path d="M241.42 416.874C241.133 417.161 241.133 417.627 241.42 417.914L246.096 422.59C246.383 422.877 246.849 422.877 247.136 422.59C247.423 422.303 247.423 421.838 247.136 421.551L242.979 417.394L247.136 413.237C247.423 412.95 247.423 412.485 247.136 412.198C246.849 411.911 246.383 411.911 246.096 412.198L241.42 416.874ZM302.197 416.659H241.939V418.129H302.197V416.659Z" fill="#9897F9"/>
<text fill="black" xml:space="preserve" style="white-space: pre" font-family="National 2 Narrow" font-size="19.1061" letter-spacing="0em"><tspan x="616.232" y="735.896">are you the right person to </tspan><tspan x="660.807" y="753.896">tell this story?</tspan></text>
<text fill="black" xml:space="preserve" style="white-space: pre" font-family="National 2 Narrow" font-size="19.1061" letter-spacing="0em"><tspan x="751.924" y="809.381">yes</tspan></text>
<text fill="black" xml:space="preserve" style="white-space: pre" font-family="National 2 Narrow" font-size="19.1061" letter-spacing="0em"><tspan x="650.515" y="807.911">no</tspan></text>
<path d="M710.773 800.985H710.038V801.72H710.773V800.985ZM742.156 801.504C742.443 801.217 742.443 800.752 742.156 800.465L737.479 795.789C737.192 795.502 736.727 795.502 736.44 795.789C736.153 796.076 736.153 796.541 736.44 796.828L740.597 800.985L736.44 805.142C736.153 805.429 736.153 805.894 736.44 806.181C736.727 806.468 737.192 806.468 737.479 806.181L742.156 801.504ZM710.038 759.833V800.985H711.508V759.833H710.038ZM710.773 801.72H741.636V800.25H710.773V801.72Z" fill="#9897F9"/>
<path d="M679.389 800.465C679.102 800.752 679.102 801.217 679.389 801.504L684.066 806.181C684.353 806.468 684.818 806.468 685.105 806.181C685.392 805.894 685.392 805.429 685.105 805.142L680.948 800.985L685.105 796.828C685.392 796.541 685.392 796.076 685.105 795.789C684.818 795.502 684.353 795.502 684.066 795.789L679.389 800.465ZM710.773 800.25H679.909V801.72H710.773V800.25Z" fill="#9897F9"/>
<text fill="black" xml:space="preserve" style="white-space: pre" font-family="National 2 Narrow" font-size="19.1061" letter-spacing="0em"><tspan x="793.076" y="1023.96">yes</tspan></text>
<text fill="black" xml:space="preserve" style="white-space: pre" font-family="National 2 Narrow" font-size="19.1061" letter-spacing="0em"><tspan x="571.152" y="1041.59">yup!</tspan></text>
<text fill="black" xml:space="preserve" style="white-space: pre" font-family="National 2 Narrow" font-size="19.1061" letter-spacing="0em"><tspan x="525.591" y="1106.26">no</tspan></text>
<text fill="black" xml:space="preserve" style="white-space: pre" font-family="National 2 Narrow" font-size="19.1061" letter-spacing="0em"><tspan x="585.848" y="1122.43">fix it</tspan></text>
<text fill="black" xml:space="preserve" style="white-space: pre" font-family="National 2 Narrow" font-size="19.1061" letter-spacing="0em"><tspan x="696.076" y="1022.49">no</tspan></text>
<text fill="black" xml:space="preserve" style="white-space: pre" font-family="National 2 Narrow" font-size="19.1061" letter-spacing="0em"><tspan x="590.258" y="988.684">try again</tspan></text>
<path d="M751.924 1014.09H751.189V1014.83H751.924V1014.09ZM783.308 1014.61C783.595 1014.32 783.595 1013.86 783.308 1013.57L778.631 1008.89C778.344 1008.61 777.879 1008.61 777.592 1008.89C777.305 1009.18 777.305 1009.65 777.592 1009.93L781.749 1014.09L777.592 1018.25C777.305 1018.53 777.305 1019 777.592 1019.29C777.879 1019.57 778.344 1019.57 778.631 1019.29L783.308 1014.61ZM751.189 981.758V1014.09H752.659V981.758H751.189ZM751.924 1014.83H782.788V1013.36H751.924V1014.83Z" fill="#9897F9"/>
<path d="M720.541 1013.57C720.254 1013.86 720.254 1014.32 720.541 1014.61L725.218 1019.29C725.504 1019.57 725.97 1019.57 726.257 1019.29C726.544 1019 726.544 1018.53 726.257 1018.25L722.1 1014.09L726.257 1009.93C726.544 1009.65 726.544 1009.18 726.257 1008.89C725.97 1008.61 725.504 1008.61 725.218 1008.89L720.541 1013.57ZM751.924 1013.36H721.061V1014.83H751.924V1013.36Z" fill="#9897F9"/>
<text fill="black" xml:space="preserve" style="white-space: pre" font-family="National 2 Narrow" font-size="19.1061" letter-spacing="0em"><tspan x="571.152" y="859.351">collaborate with </tspan><tspan x="571.152" y="877.351">someone who is</tspan></text>
<text fill="black" xml:space="preserve" style="white-space: pre" font-family="National 2 Narrow" font-size="19.1061" letter-spacing="0em"><tspan x="692.682" y="918.138">create a plan for </tspan><tspan x="687.131" y="936.138">your data story. is </tspan><tspan x="685.648" y="954.138">it still interesting?</tspan></text>
<text fill="black" xml:space="preserve" style="white-space: pre" font-family="National 2 Narrow" font-size="19.1061" letter-spacing="0em"><tspan x="670.497" y="1069.52">nice, make the </tspan><tspan x="671.617" y="1087.52">thing! is it still </tspan><tspan x="680.302" y="1105.52">interesting?</tspan></text>
<text fill="black" xml:space="preserve" style="white-space: pre" font-family="National 2 Narrow" font-size="19.1061" letter-spacing="0em"><tspan x="149.61" y="487.517">can you collect the </tspan><tspan x="166.785" y="505.517">data yourself?</tspan></text>
<text fill="black" xml:space="preserve" style="white-space: pre" font-family="National 2 Narrow" font-size="19.1061" letter-spacing="0em"><tspan x="374.107" y="487.517">is it ethical to collect or </tspan><tspan x="403.643" y="505.517">use these data?</tspan></text>
<text fill="black" xml:space="preserve" style="white-space: pre" font-family="National 2 Narrow" font-size="19.1061" letter-spacing="0em"><tspan x="663.008" y="553.654">are the results of the </tspan><tspan x="664.108" y="571.654">analysis interesting? </tspan></text>
<text fill="black" xml:space="preserve" style="white-space: pre" font-family="National 2 Narrow" font-size="19.1061" letter-spacing="0em"><tspan x="414.318" y="605.093">maybe not...</tspan></text>
<text fill="black" xml:space="preserve" style="white-space: pre" font-family="National 2 Narrow" font-size="19.1061" letter-spacing="0em"><tspan x="533.006" y="561.002">definitely</tspan></text>
<text fill="black" xml:space="preserve" style="white-space: pre" font-family="National 2 Narrow" font-size="19.1061" letter-spacing="0em"><tspan x="392.651" y="659.472">find a new </tspan><tspan x="387.091" y="677.472">data source</tspan></text>
<text fill="black" xml:space="preserve" style="white-space: pre" font-family="National 2 Narrow" font-size="19.1061" letter-spacing="0em"><tspan x="290.439" y="559.532">yes</tspan></text>
<text fill="black" xml:space="preserve" style="white-space: pre" font-family="National 2 Narrow" font-size="19.1061" letter-spacing="0em"><tspan x="130.242" y="558.063">no</tspan></text>
<path d="M219.894 551.136H219.159V551.871H219.894V551.136ZM280.671 551.656C280.958 551.369 280.958 550.904 280.671 550.617L275.995 545.94C275.708 545.653 275.242 545.653 274.955 545.94C274.668 546.227 274.668 546.692 274.955 546.979L279.112 551.136L274.955 555.293C274.668 555.58 274.668 556.046 274.955 556.333C275.242 556.62 275.708 556.62 275.995 556.333L280.671 551.656ZM219.159 509.985V551.136H220.629V509.985H219.159ZM219.894 551.871H280.152V550.402H219.894V551.871Z" fill="#9897F9"/>
<path d="M159.117 550.617C158.83 550.904 158.83 551.369 159.117 551.656L163.793 556.333C164.08 556.62 164.546 556.62 164.833 556.333C165.12 556.046 165.12 555.58 164.833 555.293L160.676 551.136L164.833 546.979C165.12 546.693 165.12 546.227 164.833 545.94C164.546 545.653 164.08 545.653 163.793 545.94L159.117 550.617ZM219.894 550.402H159.636V551.871H219.894V550.402Z" fill="#9897F9"/>
<path d="M120.556 217.202C120.789 216.87 120.709 216.412 120.377 216.179L114.962 212.381C114.63 212.148 114.172 212.228 113.939 212.56C113.706 212.892 113.786 213.351 114.118 213.584L118.931 216.96L115.555 221.773C115.322 222.105 115.402 222.563 115.734 222.796C116.067 223.029 116.525 222.949 116.758 222.617L120.556 217.202ZM67.7447 342.213C60.0927 318.529 62.8165 289.131 72.6869 264.729C82.5687 240.299 99.507 221.114 120.082 217.504L119.828 216.057C98.5157 219.795 81.2836 239.557 71.3245 264.178C61.354 288.827 58.5664 318.585 66.3462 342.665L67.7447 342.213Z" fill="#9897F9"/>
<path d="M120.17 340.754C120.457 341.041 120.922 341.041 121.209 340.754L125.886 336.078C126.173 335.791 126.173 335.326 125.886 335.039C125.599 334.752 125.133 334.752 124.846 335.039L120.689 339.196L116.532 335.039C116.245 334.752 115.78 334.752 115.493 335.039C115.206 335.326 115.206 335.791 115.493 336.078L120.17 340.754ZM119.955 299.818V340.235H121.424V299.818H119.955Z" fill="#9897F9"/>
<path d="M301.677 345.898C301.964 346.185 302.43 346.185 302.717 345.898L307.393 341.222C307.68 340.935 307.68 340.47 307.393 340.183C307.106 339.896 306.641 339.896 306.354 340.183L302.197 344.34L298.04 340.183C297.753 339.896 297.288 339.896 297.001 340.183C296.714 340.47 296.714 340.935 297.001 341.222L301.677 345.898ZM301.462 300.553V345.379H302.932V300.553H301.462Z" fill="#9897F9"/>
<path d="M219.374 465.679C219.661 465.966 220.127 465.966 220.414 465.679L225.09 461.002C225.377 460.715 225.377 460.25 225.09 459.963C224.803 459.676 224.338 459.676 224.051 459.963L219.894 464.12L215.737 459.963C215.45 459.676 214.985 459.676 214.698 459.963C214.411 460.25 214.411 460.715 214.698 461.002L219.374 465.679ZM219.159 432.091V465.159H220.629V432.091H219.159Z" fill="#9897F9"/>
<path d="M78.803 549.667H78.0682V550.402H78.803V549.667ZM79.3227 394.094C79.0357 393.807 78.5704 393.807 78.2834 394.094L73.6069 398.771C73.3199 399.058 73.3199 399.523 73.6069 399.81C73.8939 400.097 74.3591 400.097 74.6461 399.81L78.803 395.653L82.96 399.81C83.2469 400.097 83.7122 400.097 83.9992 399.81C84.2862 399.523 84.2862 399.058 83.9992 398.771L79.3227 394.094ZM119.22 548.932H78.803V550.402H119.22V548.932ZM79.5379 549.667V394.614H78.0682V549.667H79.5379Z" fill="#9897F9"/>
<path d="M136.121 996.455H135.386V997.189H136.121V996.455ZM154.277 996.974C154.564 996.687 154.564 996.222 154.277 995.935L149.601 991.258C149.314 990.971 148.848 990.971 148.561 991.258C148.274 991.545 148.274 992.011 148.561 992.298L152.718 996.455L148.561 1000.61C148.274 1000.9 148.274 1001.36 148.561 1001.65C148.848 1001.94 149.314 1001.94 149.601 1001.65L154.277 996.974ZM135.386 567.303V996.455H136.856V567.303H135.386ZM136.121 997.189H153.758V995.72H136.121V997.189Z" fill="#9897F9"/>
<path d="M352.802 551.136V551.871H353.537V551.136H352.802ZM352.802 493.818V493.083H352.067V493.818H352.802ZM371.792 494.338C372.079 494.051 372.079 493.586 371.792 493.299L367.116 488.622C366.829 488.335 366.364 488.335 366.077 488.622C365.79 488.909 365.79 489.374 366.077 489.661L370.234 493.818L366.077 497.975C365.79 498.262 365.79 498.727 366.077 499.014C366.364 499.301 366.829 499.301 367.116 499.014L371.792 494.338ZM327.182 551.871H352.802V550.402H327.182V551.871ZM353.537 551.136V493.818H352.067V551.136H353.537ZM352.802 494.553H371.273V493.083H352.802V494.553Z" fill="#9897F9"/>
<path d="M387.655 464.209C387.942 464.496 388.407 464.496 388.694 464.209L393.37 459.532C393.657 459.245 393.657 458.78 393.37 458.493C393.083 458.206 392.618 458.206 392.331 458.493L388.174 462.65L384.017 458.493C383.73 458.206 383.265 458.206 382.978 458.493C382.691 458.78 382.691 459.245 382.978 459.532L387.655 464.209ZM387.439 431.356V463.689H388.909V431.356H387.439Z" fill="#9897F9"/>
<path d="M378.591 507.572C378.476 507.183 378.067 506.961 377.678 507.076L371.336 508.95C370.946 509.065 370.724 509.473 370.839 509.862C370.954 510.252 371.363 510.474 371.752 510.359L377.39 508.693L379.056 514.331C379.171 514.72 379.579 514.943 379.969 514.828C380.358 514.713 380.58 514.304 380.465 513.915L378.591 507.572ZM378.513 662.449C365.748 641.661 360.067 613.521 360.434 585.316C360.8 557.115 367.211 528.947 378.532 508.131L377.241 507.429C365.781 528.5 359.333 556.915 358.964 585.297C358.596 613.676 364.305 642.119 377.26 663.218L378.513 662.449Z" fill="#9897F9"/>
<path d="M426.602 636.164C426.889 636.451 427.354 636.451 427.641 636.164L432.317 631.487C432.604 631.2 432.604 630.735 432.317 630.448C432.03 630.161 431.565 630.161 431.278 630.448L427.121 634.605L422.964 630.448C422.677 630.161 422.212 630.161 421.925 630.448C421.638 630.735 421.638 631.2 421.925 631.487L426.602 636.164ZM426.386 612.129V635.644H427.856V612.129H426.386Z" fill="#9897F9"/>
<path d="M497.667 981.758V982.492H498.402V981.758H497.667ZM286.98 981.238C286.693 981.525 286.693 981.99 286.98 982.277L291.657 986.954C291.944 987.241 292.409 987.241 292.696 986.954C292.983 986.667 292.983 986.201 292.696 985.914L288.539 981.758L292.696 977.601C292.983 977.314 292.983 976.848 292.696 976.561C292.409 976.274 291.944 976.274 291.657 976.561L286.98 981.238ZM496.932 612.864V981.758H498.402V612.864H496.932ZM497.667 981.023H287.5V982.492H497.667V981.023Z" fill="#9897F9"/>
<path d="M458.935 583.989C459.222 584.276 459.687 584.276 459.974 583.989L464.651 579.313C464.938 579.026 464.938 578.56 464.651 578.273C464.364 577.987 463.898 577.987 463.611 578.273L459.455 582.43L455.298 578.273C455.011 577.987 454.545 577.987 454.258 578.273C453.971 578.56 453.971 579.026 454.258 579.313L458.935 583.989ZM458.72 513.659V583.47H460.189V513.659H458.72Z" fill="#9897F9"/>
<path d="M524.641 556.065C524.928 555.778 524.928 555.313 524.641 555.026L519.964 550.349C519.677 550.062 519.212 550.062 518.925 550.349C518.638 550.636 518.638 551.102 518.925 551.389L523.082 555.545L518.925 559.702C518.638 559.989 518.638 560.455 518.925 560.742C519.212 561.029 519.677 561.029 519.964 560.742L524.641 556.065ZM459.455 556.28H524.121V554.811H459.455V556.28Z" fill="#9897F9"/>
<path d="M644.421 555.33C644.708 555.043 644.708 554.578 644.421 554.291L639.745 549.614C639.458 549.327 638.992 549.327 638.705 549.614C638.418 549.901 638.418 550.367 638.705 550.654L642.862 554.811L638.705 558.968C638.418 559.255 638.418 559.72 638.705 560.007C638.992 560.294 639.458 560.294 639.745 560.007L644.421 555.33ZM610.098 555.545H643.902V554.076H610.098V555.545Z" fill="#9897F9"/>
<path d="M811.907 384.379C811.531 384.53 811.349 384.958 811.5 385.335L813.969 391.47C814.12 391.847 814.548 392.029 814.925 391.878C815.301 391.726 815.484 391.298 815.332 390.922L813.138 385.468L818.592 383.273C818.968 383.122 819.151 382.694 818.999 382.317C818.848 381.941 818.42 381.759 818.043 381.91L811.907 384.379ZM843.647 615.49C853.128 601.962 860.071 582.535 864.133 560.61C868.197 538.674 869.386 514.183 867.319 490.487C865.252 466.795 859.927 443.864 850.939 425.065C841.952 406.269 829.273 391.545 812.47 384.385L811.894 385.737C828.259 392.711 840.721 407.1 849.613 425.699C858.505 444.296 863.799 467.044 865.855 490.615C867.91 514.182 866.727 538.54 862.688 560.342C858.647 582.155 851.758 601.355 842.444 614.646L843.647 615.49Z" fill="#9897F9"/>
<path d="M295.799 214.056C295.512 214.343 295.512 214.808 295.799 215.095L300.475 219.772C300.762 220.059 301.227 220.059 301.514 219.772C301.801 219.485 301.801 219.02 301.514 218.733L297.357 214.576L301.514 210.419C301.801 210.132 301.801 209.667 301.514 209.38C301.227 209.093 300.762 209.093 300.475 209.38L295.799 214.056ZM667.417 385.061C586.88 385.061 535.814 342.439 483.989 299.619C432.192 256.822 379.648 213.841 296.318 213.841L296.318 215.311C379.064 215.311 431.236 257.939 483.053 300.752C534.841 343.542 586.287 386.53 667.417 386.53V385.061Z" fill="#9897F9"/>
<path d="M829.818 1131.67V1132.4H830.553V1131.67H829.818ZM190.5 1131.67H189.765V1132.4H190.5V1131.67ZM191.02 1024.69C190.733 1024.4 190.267 1024.4 189.98 1024.69L185.304 1029.36C185.017 1029.65 185.017 1030.11 185.304 1030.4C185.591 1030.69 186.056 1030.69 186.343 1030.4L190.5 1026.25L194.657 1030.4C194.944 1030.69 195.409 1030.69 195.696 1030.4C195.983 1030.11 195.983 1029.65 195.696 1029.36L191.02 1024.69ZM829.083 633.439V1131.67H830.553V633.439H829.083ZM829.818 1130.93H190.5V1132.4H829.818V1130.93ZM191.235 1131.67V1025.21H189.765V1131.67H191.235Z" fill="#9897F9"/>
<path d="M731.348 589.381H730.614V590.116H731.348V589.381ZM828.348 589.381H829.083V588.646H828.348V589.381ZM827.829 606.035C828.116 606.322 828.581 606.322 828.868 606.035L833.545 601.358C833.832 601.071 833.832 600.606 833.545 600.319C833.258 600.032 832.792 600.032 832.505 600.319L828.348 604.476L824.192 600.319C823.905 600.032 823.439 600.032 823.152 600.319C822.865 600.606 822.865 601.071 823.152 601.358L827.829 606.035ZM730.614 577.591V589.381H732.083V577.591H730.614ZM731.348 590.116H828.348V588.646H731.348V590.116ZM827.614 589.381V605.515H829.083V589.381H827.614Z" fill="#9897F9"/>
<path d="M663.742 589.349V588.614H663.008V589.349H663.742ZM663.223 606.035C663.51 606.322 663.975 606.322 664.262 606.035L668.939 601.358C669.226 601.071 669.226 600.606 668.939 600.319C668.652 600.032 668.186 600.032 667.899 600.319L663.742 604.476L659.585 600.319C659.298 600.032 658.833 600.032 658.546 600.319C658.259 600.606 658.259 601.071 658.546 601.358L663.223 606.035ZM732.818 588.614H663.742V590.083H732.818V588.614ZM663.008 589.349V605.515H664.477V589.349H663.008Z" fill="#9897F9"/>
<path d="M730.829 604.565C731.116 604.852 731.581 604.852 731.868 604.565L736.545 599.889C736.832 599.602 736.832 599.136 736.545 598.849C736.258 598.562 735.792 598.562 735.505 598.849L731.348 603.006L727.192 598.849C726.905 598.562 726.439 598.562 726.152 598.849C725.865 599.136 725.865 599.602 726.152 599.889L730.829 604.565ZM730.614 589.349V604.045H732.083V589.349H730.614Z" fill="#9897F9"/>
<path d="M662.488 656.004C662.775 656.291 663.24 656.291 663.527 656.004L668.204 651.328C668.491 651.041 668.491 650.576 668.204 650.289C667.917 650.002 667.452 650.002 667.165 650.289L663.008 654.446L658.851 650.289C658.564 650.002 658.098 650.002 657.811 650.289C657.524 650.576 657.524 651.041 657.811 651.328L662.488 656.004ZM662.273 631.97V655.485H663.742V631.97H662.273Z" fill="#9897F9"/>
<path d="M644.421 567.823C644.708 567.536 644.708 567.07 644.421 566.783L639.745 562.107C639.458 561.82 638.992 561.82 638.705 562.107C638.418 562.394 638.418 562.859 638.705 563.146L642.862 567.303L638.705 571.46C638.418 571.747 638.418 572.212 638.705 572.499C638.992 572.786 639.458 572.786 639.745 572.499L644.421 567.823ZM614.206 681.346C595.469 667.654 592.1 639.399 598.958 614.344C602.378 601.848 608.323 590.248 616.071 581.784C623.818 573.323 633.325 568.038 643.901 568.038V566.568C632.8 566.568 622.925 572.122 614.987 580.792C607.052 589.46 601.009 601.282 597.54 613.956C590.62 639.237 593.864 668.301 613.339 682.533L614.206 681.346Z" fill="#9897F9"/>
<path d="M732.299 709.648C732.586 709.935 733.051 709.935 733.338 709.648L738.014 704.972C738.301 704.685 738.301 704.22 738.014 703.933C737.727 703.646 737.262 703.646 736.975 703.933L732.818 708.09L728.661 703.933C728.374 703.646 727.909 703.646 727.622 703.933C727.335 704.22 727.335 704.685 727.622 704.972L732.299 709.648ZM732.083 630.5V709.129H733.553V630.5H732.083Z" fill="#9897F9"/>
<path d="M655.874 841.921C656.161 842.208 656.627 842.208 656.914 841.921L661.59 837.245C661.877 836.958 661.877 836.492 661.59 836.205C661.303 835.918 660.838 835.918 660.551 836.205L656.394 840.362L652.237 836.205C651.95 835.918 651.485 835.918 651.198 836.205C650.911 836.492 650.911 836.958 651.198 837.245L655.874 841.921ZM655.659 812.742V841.402H657.129V812.742H655.659Z" fill="#9897F9"/>
<path d="M537.348 823.765V823.03H536.614V823.765H537.348ZM537.348 999.394V1000.13H538.083V999.394H537.348ZM288.45 998.874C288.163 999.161 288.163 999.627 288.45 999.914L293.127 1004.59C293.414 1004.88 293.879 1004.88 294.166 1004.59C294.453 1004.3 294.453 1003.84 294.166 1003.55L290.009 999.394L294.166 995.237C294.453 994.95 294.453 994.485 294.166 994.198C293.879 993.911 293.414 993.911 293.127 994.198L288.45 998.874ZM657.129 823.03H537.348V824.5H657.129V823.03ZM536.614 823.765V999.394H538.083V823.765H536.614ZM537.348 998.659H288.97V1000.13H537.348V998.659Z" fill="#9897F9"/>
<path d="M627 1014.09H626.265V1014.83H627V1014.09ZM627.52 998.874C627.233 998.587 626.767 998.587 626.48 998.874L621.804 1003.55C621.517 1003.84 621.517 1004.3 621.804 1004.59C622.091 1004.88 622.556 1004.88 622.843 1004.59L627 1000.43L631.157 1004.59C631.444 1004.88 631.909 1004.88 632.196 1004.59C632.483 1004.3 632.483 1003.84 632.196 1003.55L627.52 998.874ZM686.523 1013.36H627V1014.83H686.523V1013.36ZM627.735 1014.09V999.394H626.265V1014.09H627.735Z" fill="#9897F9"/>
<path d="M625.53 940.606V939.871H624.795V940.606H625.53ZM676.02 941.126C676.307 940.839 676.307 940.373 676.02 940.086L671.343 935.41C671.056 935.123 670.591 935.123 670.304 935.41C670.017 935.697 670.017 936.162 670.304 936.449L674.461 940.606L670.304 944.763C670.017 945.05 670.017 945.515 670.304 945.802C670.591 946.089 671.056 946.089 671.343 945.802L676.02 941.126ZM626.265 970V940.606H624.795V970H626.265ZM625.53 941.341H675.5V939.871H625.53V941.341Z" fill="#9897F9"/>
<path d="M288.45 1013.57C288.163 1013.86 288.163 1014.32 288.45 1014.61L293.127 1019.29C293.414 1019.57 293.879 1019.57 294.166 1019.29C294.453 1019 294.453 1018.53 294.166 1018.25L290.009 1014.09L294.166 1009.93C294.453 1009.65 294.453 1009.18 294.166 1008.89C293.879 1008.61 293.414 1008.61 293.127 1008.89L288.45 1013.57ZM626.265 1013.36H288.97V1014.83H626.265V1013.36Z" fill="#9897F9"/>
<path d="M763.162 897.035C763.449 897.322 763.914 897.322 764.201 897.035L768.878 892.358C769.165 892.071 769.165 891.606 768.878 891.319C768.591 891.032 768.126 891.032 767.839 891.319L763.682 895.476L759.525 891.319C759.238 891.032 758.773 891.032 758.486 891.319C758.199 891.606 758.199 892.071 758.486 892.358L763.162 897.035ZM762.947 812.742V896.515H764.417V812.742H762.947Z" fill="#9897F9"/>
<path d="M804.833 1090.52V1091.25H805.568V1090.52H804.833ZM782.268 1090C781.981 1090.28 781.981 1090.75 782.268 1091.03L786.945 1095.71C787.232 1096 787.697 1096 787.984 1095.71C788.271 1095.42 788.271 1094.96 787.984 1094.67L783.827 1090.52L787.984 1086.36C788.271 1086.07 788.271 1085.61 787.984 1085.32C787.697 1085.03 787.232 1085.03 786.945 1085.32L782.268 1090ZM804.098 1031.73V1090.52H805.568V1031.73H804.098ZM804.833 1089.78H782.788V1091.25H804.833V1089.78Z" fill="#9897F9"/>
<path d="M585.848 1075.82H585.114V1076.55H585.848V1075.82ZM586.368 1047.37C586.081 1047.09 585.616 1047.09 585.329 1047.37L580.652 1052.05C580.365 1052.34 580.365 1052.8 580.652 1053.09C580.939 1053.38 581.405 1053.38 581.692 1053.09L585.848 1048.93L590.005 1053.09C590.292 1053.38 590.758 1053.38 591.045 1053.09C591.332 1052.8 591.332 1052.34 591.045 1052.05L586.368 1047.37ZM651.985 1075.08H585.848V1076.55H651.985V1075.08ZM586.583 1075.82V1047.89H585.114V1075.82H586.583Z" fill="#9897F9"/>
<path d="M533.889 1035.62C533.602 1035.9 533.602 1036.37 533.889 1036.66L538.566 1041.33C538.853 1041.62 539.318 1041.62 539.605 1041.33C539.892 1041.05 539.892 1040.58 539.605 1040.29L535.448 1036.14L539.605 1031.98C539.892 1031.69 539.892 1031.23 539.605 1030.94C539.318 1030.65 538.853 1030.65 538.566 1030.94L533.889 1035.62ZM566.008 1035.4H534.409V1036.87H566.008V1035.4Z" fill="#9897F9"/>
<path d="M534.409 1075.82V1075.08H533.674V1075.82H534.409ZM533.889 1085.89C534.176 1086.18 534.642 1086.18 534.929 1085.89L539.605 1081.21C539.892 1080.93 539.892 1080.46 539.605 1080.18C539.318 1079.89 538.853 1079.89 538.566 1080.18L534.409 1084.33L530.252 1080.18C529.965 1079.89 529.5 1079.89 529.213 1080.18C528.926 1080.46 528.926 1080.93 529.213 1081.21L533.889 1085.89ZM585.114 1075.08H534.409V1076.55H585.114V1075.08ZM533.674 1075.82V1085.37H535.144V1075.82H533.674Z" fill="#9897F9"/>
<path d="M658.592 1097.76C658.537 1097.36 658.166 1097.08 657.764 1097.14L651.211 1098.03C650.809 1098.09 650.528 1098.46 650.583 1098.86C650.638 1099.26 651.009 1099.54 651.411 1099.49L657.235 1098.69L658.032 1104.52C658.087 1104.92 658.458 1105.2 658.86 1105.14C659.262 1105.09 659.544 1104.72 659.489 1104.32L658.592 1097.76ZM628.47 1114.77C635.554 1114.77 640.567 1113.99 645.075 1111.5C649.565 1109.01 653.471 1104.86 658.449 1098.31L657.278 1097.42C652.32 1103.95 648.568 1107.88 644.363 1110.21C640.177 1112.53 635.461 1113.3 628.47 1113.3V1114.77Z" fill="#9897F9"/>
<path d="M534.409 1119.91H533.674V1120.64H534.409V1119.91ZM577.55 1120.43C577.837 1120.14 577.837 1119.68 577.55 1119.39L572.873 1114.71C572.586 1114.43 572.121 1114.43 571.834 1114.71C571.547 1115 571.547 1115.47 571.834 1115.75L575.991 1119.91L571.834 1124.07C571.547 1124.35 571.547 1124.82 571.834 1125.11C572.121 1125.39 572.586 1125.39 572.873 1125.11L577.55 1120.43ZM533.674 1109.62V1119.91H535.144V1109.62H533.674ZM534.409 1120.64H577.03V1119.17H534.409V1120.64Z" fill="#9897F9"/>
<path d="M212.545 1119.91H211.811V1120.64H212.545V1119.91ZM213.065 1025.33C212.778 1025.04 212.313 1025.04 212.026 1025.33L207.349 1030.01C207.062 1030.29 207.062 1030.76 207.349 1031.04C207.636 1031.33 208.102 1031.33 208.389 1031.04L212.545 1026.89L216.702 1031.04C216.989 1031.33 217.455 1031.33 217.742 1031.04C218.029 1030.76 218.029 1030.29 217.742 1030.01L213.065 1025.33ZM534.409 1119.17H212.545V1120.64H534.409V1119.17ZM213.28 1119.91V1025.85H211.811V1119.91H213.28Z" fill="#9897F9"/>
<path d="M652.72 920.765H651.985V921.5H652.72V920.765ZM677.489 921.285C677.776 920.998 677.776 920.533 677.489 920.246L672.813 915.569C672.526 915.282 672.061 915.282 671.774 915.569C671.487 915.856 671.487 916.321 671.774 916.608L675.93 920.765L671.774 924.922C671.487 925.209 671.487 925.674 671.774 925.961C672.061 926.248 672.526 926.248 672.813 925.961L677.489 921.285ZM651.985 886.227V920.765H653.455V886.227H651.985ZM652.72 921.5H676.97V920.03H652.72V921.5Z" fill="#9897F9"/>
<path d="M228.712 169.015V168.28H227.977V169.015H228.712ZM228.192 190.111C228.479 190.397 228.945 190.397 229.232 190.111L233.908 185.434C234.195 185.147 234.195 184.682 233.908 184.395C233.621 184.108 233.156 184.108 232.869 184.395L228.712 188.552L224.555 184.395C224.268 184.108 223.803 184.108 223.516 184.395C223.229 184.682 223.229 185.147 223.516 185.434L228.192 190.111ZM368.333 168.28H228.712V169.75H368.333V168.28ZM227.977 169.015V189.591H229.447V169.015H227.977Z" fill="#9897F9"/>
</g>
<defs>
<clipPath id="clip0">
<rect width="900" height="1164.71" fill="white" transform="translate(0.909088)"/>
</clipPath>
</defs>
</svg>
