<svg width="900" height="1193" viewBox="0 0 900 1193" fill="none" xmlns="http://www.w3.org/2000/svg">
<rect width="900" height="1193" fill="white"/>
<rect width="899.455" height="61.7273" fill="#9897F9"/>
<text fill="black" xml:space="preserve" style="white-space: pre" font-family="National 2 Narrow" font-size="26.4545" letter-spacing="0em"><tspan x="290.318" y="91.4748">Do you have a unique question?</tspan></text>
<text fill="black" xml:space="preserve" style="white-space: pre" font-family="National 2" font-size="38.2121" font-weight="bold" letter-spacing="0em"><tspan x="163.567" y="43.6351">WRITING A DATA-DRIVEN STORY</tspan></text>
<text fill="black" xml:space="preserve" style="white-space: pre" font-family="National 2 Narrow" font-size="19.1061" letter-spacing="0em"><tspan x="266.015" y="133.32">yes</tspan></text>
<text fill="black" xml:space="preserve" style="white-space: pre" font-family="National 2 Narrow" font-size="19.1061" letter-spacing="0em"><tspan x="141.439" y="217.093">can it be answered </tspan><tspan x="172.113" y="235.093">with data?</tspan></text>
<text fill="black" xml:space="preserve" style="white-space: pre" font-family="National 2 Narrow" font-size="19.1061" letter-spacing="0em"><tspan x="37.6682" y="365.532">come up with a </tspan><tspan x="44.4038" y="383.532">new question</tspan></text>
<text fill="black" xml:space="preserve" style="white-space: pre" font-family="National 2 Narrow" font-size="19.1061" letter-spacing="0em"><tspan x="682.865" y="383.169">come up with a </tspan><tspan x="689.601" y="401.169">new question</tspan></text>
<text fill="black" xml:space="preserve" style="white-space: pre" font-family="National 2 Narrow" font-size="19.1061" letter-spacing="0em"><tspan x="243.918" y="367.002">do the data exist?</tspan></text>
<text fill="black" xml:space="preserve" style="white-space: pre" font-family="National 2 Narrow" font-size="19.1061" letter-spacing="0em"><tspan x="614.333" y="133.32">no</tspan></text>
<text fill="black" xml:space="preserve" style="white-space: pre" font-family="National 2 Narrow" font-size="19.1061" letter-spacing="0em"><tspan x="376.242" y="171.532">not unique, but it adds </tspan><tspan x="376.242" y="189.532">to the conversation</tspan></text>
<text fill="black" xml:space="preserve" style="white-space: pre" font-family="National 2 Narrow" font-size="19.1061" letter-spacing="0em"><tspan x="288.061" y="292.047">yes</tspan></text>
<text fill="black" xml:space="preserve" style="white-space: pre" font-family="National 2 Narrow" font-size="19.1061" letter-spacing="0em"><tspan x="113.167" y="293.517">no</tspan></text>
<text fill="black" xml:space="preserve" style="white-space: pre" font-family="National 2 Narrow" font-size="19.1061" letter-spacing="0em"><tspan x="371.833" y="425.79">yes</tspan></text>
<text fill="black" xml:space="preserve" style="white-space: pre" font-family="National 2 Narrow" font-size="19.1061" letter-spacing="0em"><tspan x="818.621" y="624.199">no</tspan></text>
<text fill="black" xml:space="preserve" style="white-space: pre" font-family="National 2 Narrow" font-size="19.1061" letter-spacing="0em"><tspan x="627.561" y="624.199">not sure</tspan></text>
<text fill="black" xml:space="preserve" style="white-space: pre" font-family="National 2 Narrow" font-size="19.1061" letter-spacing="0em"><tspan x="621.37" y="674.169">ask friends </tspan><tspan x="629.075" y="692.169">or family</tspan></text>
<text fill="black" xml:space="preserve" style="white-space: pre" font-family="National 2 Narrow" font-size="19.1061" letter-spacing="0em"><tspan x="723.091" y="624.199">yes</tspan></text>
<text fill="black" xml:space="preserve" style="white-space: pre" font-family="National 2 Narrow" font-size="19.1061" letter-spacing="0em"><tspan x="211.636" y="424.32">no</tspan></text>
<text fill="black" xml:space="preserve" style="white-space: pre" font-family="National 2 Narrow" font-size="19.1061" letter-spacing="0em"><tspan x="579.061" y="229.32">start there</tspan></text>
<rect x="165.735" y="979.735" width="146.53" height="35.5303" fill="#9897F9" stroke="#9897F9" stroke-width="1.4697"/>
<text fill="white" xml:space="preserve" style="white-space: pre" font-family="National 2 Narrow" font-size="20.5758" font-weight="bold" letter-spacing="0em"><tspan x="178" y="1002.76">PUT IT DOWN*</tspan></text>
<rect x="396.735" y="1023.73" width="121.53" height="35.5303" fill="#9897F9" stroke="#9897F9" stroke-width="1.4697"/>
<text fill="white" xml:space="preserve" style="white-space: pre" font-family="National 2 Narrow" font-size="20.5758" font-weight="bold" letter-spacing="0em"><tspan x="411.348" y="1048.55">PUBLISH IT</tspan></text>
<rect x="568.038" y="210.902" width="102.879" height="26.4545" stroke="#9897F9" stroke-width="1.4697"/>
<path d="M622.632 202.603C622.919 202.89 623.384 202.89 623.671 202.603L628.348 197.926C628.635 197.639 628.635 197.174 628.348 196.887C628.061 196.6 627.595 196.6 627.308 196.887L623.151 201.044L618.995 196.887C618.708 196.6 618.242 196.6 617.955 196.887C617.668 197.174 617.668 197.639 617.955 197.926L622.632 202.603ZM622.417 154.318V202.083H623.886V154.318H622.417Z" fill="#9897F9"/>
<path d="M630.799 83.4101C630.512 83.6971 630.512 84.1624 630.799 84.4494L635.475 89.1259C635.762 89.4129 636.227 89.4129 636.514 89.1259C636.801 88.8389 636.801 88.3737 636.514 88.0867L632.357 83.9297L636.514 79.7728C636.801 79.4858 636.801 79.0206 636.514 78.7336C636.227 78.4466 635.762 78.4466 635.475 78.7336L630.799 83.4101ZM683.451 222.573C693.964 216.975 701.878 205.414 706.382 191.346C710.89 177.263 712.014 160.572 708.864 144.571C705.713 128.567 698.277 113.217 685.629 101.864C672.972 90.5038 655.148 83.1949 631.318 83.1949L631.318 84.6646C654.829 84.6646 672.291 91.867 684.647 102.958C697.013 114.057 704.319 129.098 707.422 144.855C710.525 160.614 709.414 177.053 704.982 190.898C700.545 204.757 692.814 215.922 682.76 221.276L683.451 222.573Z" fill="#9897F9"/>
<path d="M455.606 124.924H454.871V125.659H455.606V124.924ZM603.095 125.444C603.382 125.157 603.382 124.692 603.095 124.405L598.419 119.728C598.132 119.441 597.667 119.441 597.38 119.728C597.093 120.015 597.093 120.48 597.38 120.767L601.537 124.924L597.38 129.081C597.093 129.368 597.093 129.833 597.38 130.12C597.667 130.407 598.132 130.407 598.419 130.12L603.095 125.444ZM454.871 101.409V124.924H456.341V101.409H454.871ZM455.606 125.659H602.576V124.189H455.606V125.659Z" fill="#9897F9"/>
<path d="M455.086 154.838C455.373 155.125 455.839 155.125 456.126 154.838L460.802 150.161C461.089 149.874 461.089 149.409 460.802 149.122C460.515 148.835 460.05 148.835 459.763 149.122L455.606 153.279L451.449 149.122C451.162 148.835 450.697 148.835 450.41 149.122C450.123 149.409 450.123 149.874 450.41 150.161L455.086 154.838ZM454.871 121.985V154.318H456.341V121.985H454.871Z" fill="#9897F9"/>
<path d="M301.503 124.405C301.216 124.692 301.216 125.157 301.503 125.444L306.18 130.12C306.467 130.407 306.932 130.407 307.219 130.12C307.506 129.833 307.506 129.368 307.219 129.081L303.062 124.924L307.219 120.767C307.506 120.48 307.506 120.015 307.219 119.728C306.932 119.441 306.467 119.441 306.18 119.728L301.503 124.405ZM454.871 124.189H302.023V125.659H454.871V124.189Z" fill="#9897F9"/>
<path d="M202.083 141.826V141.091H201.348V141.826H202.083ZM201.564 190.845C201.851 191.132 202.316 191.132 202.603 190.845L207.279 186.169C207.566 185.882 207.566 185.417 207.279 185.13C206.992 184.843 206.527 184.843 206.24 185.13L202.083 189.287L197.926 185.13C197.639 184.843 197.174 184.843 196.887 185.13C196.6 185.417 196.6 185.882 196.887 186.169L201.564 190.845ZM251.318 141.091H202.083V142.561H251.318V141.091ZM201.348 141.826V190.326H202.818V141.826H201.348Z" fill="#9897F9"/>
<path d="M202.818 286.591H202.083V287.326H202.818V286.591ZM276.823 287.111C277.11 286.824 277.11 286.358 276.823 286.071L272.146 281.395C271.859 281.108 271.394 281.108 271.107 281.395C270.82 281.682 270.82 282.147 271.107 282.434L275.264 286.591L271.107 290.748C270.82 291.035 270.82 291.5 271.107 291.787C271.394 292.074 271.859 292.074 272.146 291.787L276.823 287.111ZM202.083 239.561V286.591H203.553V239.561H202.083ZM202.818 287.326H276.303V285.856H202.818V287.326Z" fill="#9897F9"/>
<path d="M141.306 286.071C141.019 286.358 141.019 286.824 141.306 287.111L145.983 291.787C146.27 292.074 146.735 292.074 147.022 291.787C147.309 291.5 147.309 291.035 147.022 290.748L142.865 286.591L147.022 282.434C147.309 282.147 147.309 281.682 147.022 281.395C146.735 281.108 146.27 281.108 145.983 281.395L141.306 286.071ZM202.818 285.856H141.826V287.326H202.818V285.856Z" fill="#9897F9"/>
<path d="M301.288 417.394H300.553V418.129H301.288V417.394ZM362.065 417.914C362.352 417.627 362.352 417.161 362.065 416.874L357.389 412.198C357.102 411.911 356.636 411.911 356.349 412.198C356.062 412.485 356.062 412.95 356.349 413.237L360.506 417.394L356.349 421.551C356.062 421.838 356.062 422.303 356.349 422.59C356.636 422.877 357.102 422.877 357.389 422.59L362.065 417.914ZM300.553 376.242V417.394H302.023V376.242H300.553ZM301.288 418.129H361.545V416.659H301.288V418.129Z" fill="#9897F9"/>
<path d="M240.511 416.874C240.224 417.161 240.224 417.627 240.511 417.914L245.187 422.59C245.474 422.877 245.939 422.877 246.226 422.59C246.513 422.303 246.513 421.838 246.226 421.551L242.07 417.394L246.226 413.237C246.513 412.95 246.513 412.485 246.226 412.198C245.939 411.911 245.474 411.911 245.187 412.198L240.511 416.874ZM301.288 416.659H241.03V418.129H301.288V416.659Z" fill="#9897F9"/>
<text fill="black" xml:space="preserve" style="white-space: pre" font-family="National 2 Narrow" font-size="19.1061" letter-spacing="0em"><tspan x="615.323" y="735.896">are you the right person to </tspan><tspan x="659.898" y="753.896">tell this story?</tspan></text>
<text fill="black" xml:space="preserve" style="white-space: pre" font-family="National 2 Narrow" font-size="19.1061" letter-spacing="0em"><tspan x="751.015" y="809.381">yes</tspan></text>
<text fill="black" xml:space="preserve" style="white-space: pre" font-family="National 2 Narrow" font-size="19.1061" letter-spacing="0em"><tspan x="649.606" y="807.911">no</tspan></text>
<path d="M709.864 800.985H709.129V801.72H709.864V800.985ZM741.247 801.504C741.534 801.217 741.534 800.752 741.247 800.465L736.57 795.789C736.283 795.502 735.818 795.502 735.531 795.789C735.244 796.076 735.244 796.541 735.531 796.828L739.688 800.985L735.531 805.142C735.244 805.429 735.244 805.894 735.531 806.181C735.818 806.468 736.283 806.468 736.57 806.181L741.247 801.504ZM709.129 759.833V800.985H710.598V759.833H709.129ZM709.864 801.72H740.727V800.25H709.864V801.72Z" fill="#9897F9"/>
<path d="M678.48 800.465C678.193 800.752 678.193 801.217 678.48 801.504L683.157 806.181C683.444 806.468 683.909 806.468 684.196 806.181C684.483 805.894 684.483 805.429 684.196 805.142L680.039 800.985L684.196 796.828C684.483 796.541 684.483 796.076 684.196 795.789C683.909 795.502 683.444 795.502 683.157 795.789L678.48 800.465ZM709.864 800.25H679V801.72H709.864V800.25Z" fill="#9897F9"/>
<text fill="black" xml:space="preserve" style="white-space: pre" font-family="National 2 Narrow" font-size="19.1061" letter-spacing="0em"><tspan x="792.167" y="1023.96">yes</tspan></text>
<text fill="black" xml:space="preserve" style="white-space: pre" font-family="National 2 Narrow" font-size="19.1061" letter-spacing="0em"><tspan x="570.242" y="1041.59">yup!</tspan></text>
<text fill="black" xml:space="preserve" style="white-space: pre" font-family="National 2 Narrow" font-size="19.1061" letter-spacing="0em"><tspan x="524.682" y="1106.26">no</tspan></text>
<text fill="black" xml:space="preserve" style="white-space: pre" font-family="National 2 Narrow" font-size="19.1061" letter-spacing="0em"><tspan x="584.939" y="1122.43">fix it</tspan></text>
<text fill="black" xml:space="preserve" style="white-space: pre" font-family="National 2 Narrow" font-size="19.1061" letter-spacing="0em"><tspan x="695.167" y="1022.49">no</tspan></text>
<text fill="black" xml:space="preserve" style="white-space: pre" font-family="National 2 Narrow" font-size="19.1061" letter-spacing="0em"><tspan x="589.349" y="988.684">try again</tspan></text>
<path d="M751.015 1014.09H750.28V1014.83H751.015V1014.09ZM782.398 1014.61C782.685 1014.32 782.685 1013.86 782.398 1013.57L777.722 1008.89C777.435 1008.61 776.97 1008.61 776.683 1008.89C776.396 1009.18 776.396 1009.65 776.683 1009.93L780.84 1014.09L776.683 1018.25C776.396 1018.53 776.396 1019 776.683 1019.29C776.97 1019.57 777.435 1019.57 777.722 1019.29L782.398 1014.61ZM750.28 961.758V1014.09H751.75V961.758H750.28ZM751.015 1014.83H781.879V1013.36H751.015V1014.83Z" fill="#9897F9"/>
<path d="M719.632 1013.57C719.345 1013.86 719.345 1014.32 719.632 1014.61L724.308 1019.29C724.595 1019.57 725.061 1019.57 725.348 1019.29C725.635 1019 725.635 1018.53 725.348 1018.25L721.191 1014.09L725.348 1009.93C725.635 1009.65 725.635 1009.18 725.348 1008.89C725.061 1008.61 724.595 1008.61 724.308 1008.89L719.632 1013.57ZM751.015 1013.36H720.151V1014.83H751.015V1013.36Z" fill="#9897F9"/>
<text fill="black" xml:space="preserve" style="white-space: pre" font-family="National 2 Narrow" font-size="19.1061" letter-spacing="0em"><tspan x="570.242" y="859.351">collaborate with </tspan><tspan x="570.242" y="877.351">someone who is</tspan></text>
<text fill="black" xml:space="preserve" style="white-space: pre" font-family="National 2 Narrow" font-size="19.1061" letter-spacing="0em"><tspan x="691.773" y="918.138">create a plan for </tspan><tspan x="686.222" y="936.138">your data story. is </tspan><tspan x="684.739" y="954.138">it still interesting?</tspan></text>
<text fill="black" xml:space="preserve" style="white-space: pre" font-family="National 2 Narrow" font-size="19.1061" letter-spacing="0em"><tspan x="669.588" y="1069.52">nice, make the </tspan><tspan x="670.708" y="1087.52">thing! is it still </tspan><tspan x="679.393" y="1105.52">interesting?</tspan></text>
<text fill="black" xml:space="preserve" style="white-space: pre" font-family="National 2 Narrow" font-size="19.1061" letter-spacing="0em"><tspan x="148.701" y="487.517">can you collect the </tspan><tspan x="165.876" y="505.517">data yourself?</tspan></text>
<text fill="black" xml:space="preserve" style="white-space: pre" font-family="National 2 Narrow" font-size="19.1061" letter-spacing="0em"><tspan x="373.198" y="487.517">is it ethical to collect or </tspan><tspan x="402.734" y="505.517">use these data?</tspan></text>
<text fill="black" xml:space="preserve" style="white-space: pre" font-family="National 2 Narrow" font-size="19.1061" letter-spacing="0em"><tspan x="662.099" y="553.654">are the results of the </tspan><tspan x="663.199" y="571.654">analysis interesting? </tspan></text>
<text fill="black" xml:space="preserve" style="white-space: pre" font-family="National 2 Narrow" font-size="19.1061" letter-spacing="0em"><tspan x="413.409" y="605.093">maybe not...</tspan></text>
<text fill="black" xml:space="preserve" style="white-space: pre" font-family="National 2 Narrow" font-size="19.1061" letter-spacing="0em"><tspan x="532.097" y="561.002">definitely</tspan></text>
<text fill="black" xml:space="preserve" style="white-space: pre" font-family="National 2 Narrow" font-size="19.1061" letter-spacing="0em"><tspan x="391.742" y="659.472">find a new </tspan><tspan x="386.182" y="677.472">data source</tspan></text>
<text fill="black" xml:space="preserve" style="white-space: pre" font-family="National 2 Narrow" font-size="19.1061" letter-spacing="0em"><tspan x="289.53" y="559.532">yes</tspan></text>
<text fill="black" xml:space="preserve" style="white-space: pre" font-family="National 2 Narrow" font-size="19.1061" letter-spacing="0em"><tspan x="129.333" y="558.063">no</tspan></text>
<path d="M218.985 551.136H218.25V551.871H218.985V551.136ZM279.762 551.656C280.049 551.369 280.049 550.904 279.762 550.617L275.086 545.94C274.799 545.653 274.333 545.653 274.046 545.94C273.759 546.227 273.759 546.692 274.046 546.979L278.203 551.136L274.046 555.293C273.759 555.58 273.759 556.046 274.046 556.333C274.333 556.62 274.799 556.62 275.086 556.333L279.762 551.656ZM218.25 509.985V551.136H219.72V509.985H218.25ZM218.985 551.871H279.242V550.402H218.985V551.871Z" fill="#9897F9"/>
<path d="M158.208 550.617C157.921 550.904 157.921 551.369 158.208 551.656L162.884 556.333C163.171 556.62 163.636 556.62 163.923 556.333C164.21 556.046 164.21 555.58 163.923 555.293L159.767 551.136L163.923 546.979C164.21 546.693 164.21 546.227 163.923 545.94C163.636 545.653 163.171 545.653 162.884 545.94L158.208 550.617ZM218.985 550.402H158.727V551.871H218.985V550.402Z" fill="#9897F9"/>
<path d="M119.647 217.202C119.88 216.87 119.8 216.412 119.467 216.179L114.053 212.381C113.721 212.148 113.263 212.228 113.03 212.56C112.796 212.892 112.877 213.351 113.209 213.584L118.022 216.96L114.646 221.773C114.413 222.105 114.493 222.563 114.825 222.796C115.158 223.029 115.616 222.949 115.849 222.617L119.647 217.202ZM66.8356 342.213C59.1836 318.529 61.9074 289.131 71.7778 264.729C81.6596 240.299 98.5979 221.114 119.172 217.504L118.918 216.056C97.6066 219.795 80.3744 239.557 70.4153 264.178C60.4448 288.827 57.6573 318.585 65.4371 342.665L66.8356 342.213Z" fill="#9897F9"/>
<path d="M119.261 340.755C119.548 341.041 120.013 341.041 120.3 340.755L124.976 336.078C125.263 335.791 125.263 335.326 124.976 335.039C124.69 334.752 124.224 334.752 123.937 335.039L119.78 339.196L115.623 335.039C115.336 334.752 114.871 334.752 114.584 335.039C114.297 335.326 114.297 335.791 114.584 336.078L119.261 340.755ZM119.045 299.818V340.235H120.515V299.818H119.045Z" fill="#9897F9"/>
<path d="M300.768 345.898C301.055 346.185 301.521 346.185 301.808 345.898L306.484 341.222C306.771 340.935 306.771 340.47 306.484 340.183C306.197 339.896 305.732 339.896 305.445 340.183L301.288 344.34L297.131 340.183C296.844 339.896 296.379 339.896 296.092 340.183C295.805 340.47 295.805 340.935 296.092 341.222L300.768 345.898ZM300.553 300.553V345.379H302.023V300.553H300.553Z" fill="#9897F9"/>
<path d="M218.465 465.679C218.752 465.966 219.218 465.966 219.504 465.679L224.181 461.002C224.468 460.715 224.468 460.25 224.181 459.963C223.894 459.676 223.429 459.676 223.142 459.963L218.985 464.12L214.828 459.963C214.541 459.676 214.076 459.676 213.789 459.963C213.502 460.25 213.502 460.715 213.789 461.002L218.465 465.679ZM218.25 432.091V465.159H219.72V432.091H218.25Z" fill="#9897F9"/>
<path d="M77.8939 549.667H77.1591V550.402H77.8939V549.667ZM78.4135 394.094C78.1266 393.807 77.6613 393.807 77.3743 394.094L72.6978 398.771C72.4108 399.058 72.4108 399.523 72.6978 399.81C72.9847 400.097 73.45 400.097 73.737 399.81L77.8939 395.653L82.0509 399.81C82.3378 400.097 82.8031 400.097 83.0901 399.81C83.3771 399.523 83.3771 399.058 83.0901 398.771L78.4135 394.094ZM118.311 548.932H77.8939V550.402H118.311V548.932ZM78.6288 549.667V394.614H77.1591V549.667H78.6288Z" fill="#9897F9"/>
<path d="M135.212 996.455H134.477V997.189H135.212V996.455ZM153.368 996.974C153.655 996.687 153.655 996.222 153.368 995.935L148.692 991.258C148.405 990.971 147.939 990.971 147.652 991.258C147.365 991.545 147.365 992.011 147.652 992.298L151.809 996.455L147.652 1000.61C147.365 1000.9 147.365 1001.36 147.652 1001.65C147.939 1001.94 148.405 1001.94 148.692 1001.65L153.368 996.974ZM134.477 567.303V996.455H135.947V567.303H134.477ZM135.212 997.189H152.849V995.72H135.212V997.189Z" fill="#9897F9"/>
<path d="M351.893 551.136V551.871H352.628V551.136H351.893ZM351.893 493.818V493.083H351.158V493.818H351.893ZM370.883 494.338C371.17 494.051 371.17 493.586 370.883 493.299L366.207 488.622C365.92 488.335 365.454 488.335 365.167 488.622C364.881 488.909 364.881 489.374 365.167 489.661L369.324 493.818L365.167 497.975C364.881 498.262 364.881 498.727 365.167 499.014C365.454 499.301 365.92 499.301 366.207 499.014L370.883 494.338ZM326.273 551.871H351.893V550.402H326.273V551.871ZM352.628 551.136V493.818H351.158V551.136H352.628ZM351.893 494.553H370.364V493.083H351.893V494.553Z" fill="#9897F9"/>
<path d="M386.746 464.209C387.032 464.496 387.498 464.496 387.785 464.209L392.461 459.532C392.748 459.245 392.748 458.78 392.461 458.493C392.174 458.206 391.709 458.206 391.422 458.493L387.265 462.65L383.108 458.493C382.821 458.206 382.356 458.206 382.069 458.493C381.782 458.78 381.782 459.245 382.069 459.532L386.746 464.209ZM386.53 431.356V463.689H388V431.356H386.53Z" fill="#9897F9"/>
<path d="M377.682 507.572C377.567 507.183 377.158 506.961 376.769 507.076L370.426 508.95C370.037 509.065 369.815 509.473 369.93 509.862C370.045 510.252 370.454 510.474 370.843 510.359L376.481 508.693L378.146 514.331C378.261 514.72 378.67 514.943 379.059 514.828C379.449 514.713 379.671 514.304 379.556 513.915L377.682 507.572ZM377.603 662.449C364.839 641.661 359.158 613.521 359.525 585.316C359.891 557.115 366.302 528.947 377.623 508.131L376.332 507.429C364.872 528.5 358.424 556.915 358.055 585.297C357.686 613.676 363.395 642.119 376.351 663.218L377.603 662.449Z" fill="#9897F9"/>
<path d="M425.692 636.164C425.979 636.451 426.445 636.451 426.732 636.164L431.408 631.487C431.695 631.2 431.695 630.735 431.408 630.448C431.121 630.161 430.656 630.161 430.369 630.448L426.212 634.605L422.055 630.448C421.768 630.161 421.303 630.161 421.016 630.448C420.729 630.735 420.729 631.2 421.016 631.487L425.692 636.164ZM425.477 612.129V635.644H426.947V612.129H425.477Z" fill="#9897F9"/>
<path d="M512 982V982.735H512.735V982H512ZM322.48 981.48C322.193 981.767 322.193 982.233 322.48 982.52L327.157 987.196C327.444 987.483 327.909 987.483 328.196 987.196C328.483 986.909 328.483 986.444 328.196 986.157L324.039 982L328.196 977.843C328.483 977.556 328.483 977.091 328.196 976.804C327.909 976.517 327.444 976.517 327.157 976.804L322.48 981.48ZM511.265 613V982H512.735V613H511.265ZM512 981.265H323V982.735H512V981.265Z" fill="#9897F9"/>
<path d="M458.026 583.989C458.313 584.276 458.778 584.276 459.065 583.989L463.742 579.313C464.029 579.026 464.029 578.56 463.742 578.273C463.455 577.987 462.989 577.987 462.702 578.273L458.545 582.43L454.389 578.273C454.102 577.987 453.636 577.987 453.349 578.273C453.062 578.56 453.062 579.026 453.349 579.313L458.026 583.989ZM457.811 513.659V583.47H459.28V513.659H457.811Z" fill="#9897F9"/>
<path d="M523.732 556.065C524.019 555.778 524.019 555.313 523.732 555.026L519.055 550.349C518.768 550.062 518.303 550.062 518.016 550.349C517.729 550.636 517.729 551.102 518.016 551.389L522.173 555.545L518.016 559.702C517.729 559.989 517.729 560.455 518.016 560.742C518.303 561.029 518.768 561.029 519.055 560.742L523.732 556.065ZM458.545 556.28H523.212V554.811H458.545V556.28Z" fill="#9897F9"/>
<path d="M643.512 555.33C643.799 555.043 643.799 554.578 643.512 554.291L638.835 549.614C638.549 549.327 638.083 549.327 637.796 549.614C637.509 549.901 637.509 550.367 637.796 550.654L641.953 554.811L637.796 558.968C637.509 559.255 637.509 559.72 637.796 560.007C638.083 560.294 638.549 560.294 638.835 560.007L643.512 555.33ZM609.189 555.545H642.992V554.076H609.189V555.545Z" fill="#9897F9"/>
<path d="M810.998 384.379C810.622 384.53 810.439 384.958 810.591 385.335L813.06 391.47C813.211 391.847 813.639 392.029 814.016 391.878C814.392 391.726 814.575 391.298 814.423 390.922L812.229 385.468L817.683 383.273C818.059 383.122 818.241 382.694 818.09 382.317C817.938 381.941 817.51 381.759 817.134 381.91L810.998 384.379ZM842.738 615.49C852.219 601.962 859.162 582.535 863.224 560.61C867.287 538.674 868.477 514.183 866.41 490.487C864.343 466.795 859.018 443.864 850.03 425.065C841.043 406.269 828.364 391.545 811.561 384.385L810.985 385.737C827.35 392.711 839.812 407.1 848.704 425.699C857.596 444.296 862.889 467.044 864.945 490.615C867.001 514.182 865.817 538.54 861.779 560.342C857.738 582.155 850.849 601.355 841.535 614.646L842.738 615.49Z" fill="#9897F9"/>
<path d="M294.889 214.056C294.602 214.343 294.602 214.808 294.889 215.095L299.566 219.772C299.853 220.059 300.318 220.059 300.605 219.772C300.892 219.485 300.892 219.02 300.605 218.733L296.448 214.576L300.605 210.419C300.892 210.132 300.892 209.666 300.605 209.38C300.318 209.093 299.853 209.093 299.566 209.38L294.889 214.056ZM666.508 385.061C585.971 385.061 534.905 342.439 483.08 299.619C431.283 256.822 378.739 213.841 295.409 213.841L295.409 215.311C378.155 215.311 430.327 257.939 482.144 300.752C533.932 343.542 585.378 386.53 666.508 386.53V385.061Z" fill="#9897F9"/>
<path d="M828.909 1131.67V1132.4H829.644V1131.67H828.909ZM189.591 1131.67H188.856V1132.4H189.591V1131.67ZM190.11 1024.69C189.824 1024.4 189.358 1024.4 189.071 1024.69L184.395 1029.36C184.108 1029.65 184.108 1030.11 184.395 1030.4C184.682 1030.69 185.147 1030.69 185.434 1030.4L189.591 1026.25L193.748 1030.4C194.035 1030.69 194.5 1030.69 194.787 1030.4C195.074 1030.11 195.074 1029.65 194.787 1029.36L190.11 1024.69ZM828.174 633.439V1131.67H829.644V633.439H828.174ZM828.909 1130.93H189.591V1132.4H828.909V1130.93ZM190.326 1131.67V1025.21H188.856V1131.67H190.326Z" fill="#9897F9"/>
<path d="M730.439 589.381H729.705V590.116H730.439V589.381ZM827.439 589.381H828.174V588.646H827.439V589.381ZM826.92 606.035C827.207 606.322 827.672 606.322 827.959 606.035L832.636 601.358C832.923 601.071 832.923 600.606 832.636 600.319C832.349 600.032 831.883 600.032 831.596 600.319L827.439 604.476L823.282 600.319C822.995 600.032 822.53 600.032 822.243 600.319C821.956 600.606 821.956 601.071 822.243 601.358L826.92 606.035ZM729.705 577.591V589.381H731.174V577.591H729.705ZM730.439 590.116H827.439V588.646H730.439V590.116ZM826.705 589.381V605.515H828.174V589.381H826.705Z" fill="#9897F9"/>
<path d="M662.833 589.349V588.614H662.098V589.349H662.833ZM662.314 606.035C662.601 606.322 663.066 606.322 663.353 606.035L668.029 601.358C668.316 601.071 668.316 600.606 668.029 600.319C667.742 600.032 667.277 600.032 666.99 600.319L662.833 604.476L658.676 600.319C658.389 600.032 657.924 600.032 657.637 600.319C657.35 600.606 657.35 601.071 657.637 601.358L662.314 606.035ZM731.909 588.614H662.833V590.083H731.909V588.614ZM662.098 589.349V605.515H663.568V589.349H662.098Z" fill="#9897F9"/>
<path d="M729.92 604.565C730.207 604.852 730.672 604.852 730.959 604.565L735.636 599.889C735.923 599.602 735.923 599.136 735.636 598.849C735.349 598.562 734.883 598.562 734.596 598.849L730.439 603.006L726.282 598.849C725.995 598.562 725.53 598.562 725.243 598.849C724.956 599.136 724.956 599.602 725.243 599.889L729.92 604.565ZM729.705 589.349V604.045H731.174V589.349H729.705Z" fill="#9897F9"/>
<path d="M661.579 656.004C661.866 656.291 662.331 656.291 662.618 656.004L667.295 651.328C667.582 651.041 667.582 650.576 667.295 650.289C667.008 650.002 666.542 650.002 666.255 650.289L662.099 654.446L657.942 650.289C657.655 650.002 657.189 650.002 656.902 650.289C656.615 650.576 656.615 651.041 656.902 651.328L661.579 656.004ZM661.364 631.97V655.485H662.833V631.97H661.364Z" fill="#9897F9"/>
<path d="M643.512 567.823C643.799 567.536 643.799 567.07 643.512 566.783L638.835 562.107C638.548 561.82 638.083 561.82 637.796 562.107C637.509 562.394 637.509 562.859 637.796 563.146L641.953 567.303L637.796 571.46C637.509 571.747 637.509 572.212 637.796 572.499C638.083 572.786 638.548 572.786 638.835 572.499L643.512 567.823ZM613.297 681.346C594.56 667.654 591.19 639.399 598.049 614.344C601.469 601.848 607.414 590.248 615.162 581.784C622.909 573.323 632.416 568.038 642.992 568.038V566.568C631.89 566.568 622.016 572.122 614.078 580.792C606.142 589.46 600.1 601.282 596.631 613.956C589.711 639.237 592.955 668.301 612.43 682.533L613.297 681.346Z" fill="#9897F9"/>
<path d="M731.39 709.648C731.676 709.935 732.142 709.935 732.429 709.648L737.105 704.972C737.392 704.685 737.392 704.22 737.105 703.933C736.818 703.646 736.353 703.646 736.066 703.933L731.909 708.09L727.752 703.933C727.465 703.646 727 703.646 726.713 703.933C726.426 704.22 726.426 704.685 726.713 704.972L731.39 709.648ZM731.174 630.5V709.129H732.644V630.5H731.174Z" fill="#9897F9"/>
<path d="M654.965 841.921C655.252 842.208 655.718 842.208 656.004 841.921L660.681 837.245C660.968 836.958 660.968 836.492 660.681 836.205C660.394 835.918 659.929 835.918 659.642 836.205L655.485 840.362L651.328 836.205C651.041 835.918 650.576 835.918 650.289 836.205C650.002 836.492 650.002 836.958 650.289 837.245L654.965 841.921ZM654.75 812.742V841.402H656.22V812.742H654.75Z" fill="#9897F9"/>
<path d="M547.984 824V823.265H547.249V824H547.984ZM547.984 999V999.735H548.719V999H547.984ZM323.48 998.48C323.193 998.767 323.193 999.233 323.48 999.52L328.157 1004.2C328.444 1004.48 328.909 1004.48 329.196 1004.2C329.483 1003.91 329.483 1003.44 329.196 1003.16L325.039 999L329.196 994.843C329.483 994.556 329.483 994.091 329.196 993.804C328.909 993.517 328.444 993.517 328.157 993.804L323.48 998.48ZM656 823.265H547.984V824.735H656V823.265ZM547.249 824V999H548.719V824H547.249ZM547.984 998.265H324V999.735H547.984V998.265Z" fill="#9897F9"/>
<path d="M626.091 1014.09H625.356V1014.83H626.091V1014.09ZM626.61 998.874C626.324 998.587 625.858 998.587 625.571 998.874L620.895 1003.55C620.608 1003.84 620.608 1004.3 620.895 1004.59C621.182 1004.88 621.647 1004.88 621.934 1004.59L626.091 1000.43L630.248 1004.59C630.535 1004.88 631 1004.88 631.287 1004.59C631.574 1004.3 631.574 1003.84 631.287 1003.55L626.61 998.874ZM685.614 1013.36H626.091V1014.83H685.614V1013.36ZM626.826 1014.09V999.394H625.356V1014.09H626.826Z" fill="#9897F9"/>
<path d="M624.621 940.606V939.871H623.886V940.606H624.621ZM675.111 941.126C675.398 940.839 675.398 940.373 675.111 940.086L670.434 935.41C670.147 935.123 669.682 935.123 669.395 935.41C669.108 935.697 669.108 936.162 669.395 936.449L673.552 940.606L669.395 944.763C669.108 945.05 669.108 945.515 669.395 945.802C669.682 946.089 670.147 946.089 670.434 945.802L675.111 941.126ZM625.356 970V940.606H623.886V970H625.356ZM624.621 941.341H674.591V939.871H624.621V941.341Z" fill="#9897F9"/>
<path d="M323.48 1013.48C323.193 1013.77 323.193 1014.23 323.48 1014.52L328.157 1019.2C328.444 1019.48 328.909 1019.48 329.196 1019.2C329.483 1018.91 329.483 1018.44 329.196 1018.16L325.039 1014L329.196 1009.84C329.483 1009.56 329.483 1009.09 329.196 1008.8C328.909 1008.52 328.444 1008.52 328.157 1008.8L323.48 1013.48ZM628 1013.27H324V1014.73H628V1013.27Z" fill="#9897F9"/>
<path d="M762.253 897.035C762.54 897.322 763.005 897.322 763.292 897.035L767.969 892.358C768.256 892.071 768.256 891.606 767.969 891.319C767.682 891.032 767.217 891.032 766.93 891.319L762.773 895.476L758.616 891.319C758.329 891.032 757.864 891.032 757.577 891.319C757.29 891.606 757.29 892.071 757.577 892.358L762.253 897.035ZM762.038 812.742V896.515H763.508V812.742H762.038Z" fill="#9897F9"/>
<path d="M803.924 1090.52V1091.25H804.659V1090.52H803.924ZM781.359 1090C781.072 1090.28 781.072 1090.75 781.359 1091.03L786.036 1095.71C786.323 1096 786.788 1096 787.075 1095.71C787.362 1095.42 787.362 1094.96 787.075 1094.67L782.918 1090.52L787.075 1086.36C787.362 1086.07 787.362 1085.61 787.075 1085.32C786.788 1085.03 786.323 1085.03 786.036 1085.32L781.359 1090ZM803.189 1031.73V1090.52H804.659V1031.73H803.189ZM803.924 1089.78H781.879V1091.25H803.924V1089.78Z" fill="#9897F9"/>
<path d="M584.939 1075.82H584.205V1076.55H584.939V1075.82ZM585.459 1047.37C585.172 1047.09 584.707 1047.09 584.42 1047.37L579.743 1052.05C579.456 1052.34 579.456 1052.8 579.743 1053.09C580.03 1053.38 580.495 1053.38 580.782 1053.09L584.939 1048.93L589.096 1053.09C589.383 1053.38 589.849 1053.38 590.136 1053.09C590.423 1052.8 590.423 1052.34 590.136 1052.05L585.459 1047.37ZM651.076 1075.08H584.939V1076.55H651.076V1075.08ZM585.674 1075.82V1047.89H584.205V1075.82H585.674Z" fill="#9897F9"/>
<path d="M532.98 1035.62C532.693 1035.9 532.693 1036.37 532.98 1036.66L537.657 1041.33C537.944 1041.62 538.409 1041.62 538.696 1041.33C538.983 1041.05 538.983 1040.58 538.696 1040.29L534.539 1036.14L538.696 1031.98C538.983 1031.69 538.983 1031.23 538.696 1030.94C538.409 1030.65 537.944 1030.65 537.657 1030.94L532.98 1035.62ZM565.098 1035.4H533.5V1036.87H565.098V1035.4Z" fill="#9897F9"/>
<path d="M533.5 1075.82V1075.08H532.765V1075.82H533.5ZM532.98 1085.89C533.267 1086.18 533.733 1086.18 534.02 1085.89L538.696 1081.21C538.983 1080.93 538.983 1080.46 538.696 1080.18C538.409 1079.89 537.944 1079.89 537.657 1080.18L533.5 1084.33L529.343 1080.18C529.056 1079.89 528.591 1079.89 528.304 1080.18C528.017 1080.46 528.017 1080.93 528.304 1081.21L532.98 1085.89ZM584.205 1075.08H533.5V1076.55H584.205V1075.08ZM532.765 1075.82V1085.37H534.235V1075.82H532.765Z" fill="#9897F9"/>
<path d="M657.683 1097.76C657.628 1097.36 657.257 1097.08 656.855 1097.14L650.302 1098.03C649.9 1098.09 649.619 1098.46 649.674 1098.86C649.729 1099.26 650.1 1099.54 650.502 1099.49L656.326 1098.69L657.123 1104.52C657.178 1104.92 657.549 1105.2 657.951 1105.14C658.353 1105.09 658.635 1104.72 658.579 1104.32L657.683 1097.76ZM627.561 1114.77C634.645 1114.77 639.658 1113.99 644.166 1111.5C648.656 1109.01 652.562 1104.86 657.54 1098.31L656.369 1097.42C651.411 1103.95 647.659 1107.88 643.454 1110.21C639.268 1112.53 634.552 1113.3 627.561 1113.3V1114.77Z" fill="#9897F9"/>
<path d="M533.5 1119.91H532.765V1120.64H533.5V1119.91ZM576.641 1120.43C576.928 1120.14 576.928 1119.68 576.641 1119.39L571.964 1114.71C571.677 1114.43 571.212 1114.43 570.925 1114.71C570.638 1115 570.638 1115.47 570.925 1115.75L575.082 1119.91L570.925 1124.07C570.638 1124.35 570.638 1124.82 570.925 1125.11C571.212 1125.39 571.677 1125.39 571.964 1125.11L576.641 1120.43ZM532.765 1109.62V1119.91H534.235V1109.62H532.765ZM533.5 1120.64H576.121V1119.17H533.5V1120.64Z" fill="#9897F9"/>
<path d="M211.636 1119.91H210.902V1120.64H211.636V1119.91ZM212.156 1025.33C211.869 1025.04 211.404 1025.04 211.117 1025.33L206.44 1030.01C206.153 1030.29 206.153 1030.76 206.44 1031.04C206.727 1031.33 207.192 1031.33 207.479 1031.04L211.636 1026.89L215.793 1031.04C216.08 1031.33 216.546 1031.33 216.833 1031.04C217.119 1030.76 217.119 1030.29 216.833 1030.01L212.156 1025.33ZM533.5 1119.17H211.636V1120.64H533.5V1119.17ZM212.371 1119.91V1025.85H210.902V1119.91H212.371Z" fill="#9897F9"/>
<path d="M651.811 920.765H651.076V921.5H651.811V920.765ZM676.58 921.285C676.867 920.998 676.867 920.533 676.58 920.246L671.904 915.569C671.617 915.282 671.151 915.282 670.864 915.569C670.577 915.856 670.577 916.321 670.864 916.608L675.021 920.765L670.864 924.922C670.577 925.209 670.577 925.674 670.864 925.961C671.151 926.248 671.617 926.248 671.904 925.961L676.58 921.285ZM651.076 886.227V920.765H652.545V886.227H651.076ZM651.811 921.5H676.061V920.03H651.811V921.5Z" fill="#9897F9"/>
<path d="M227.803 169.015V168.28H227.068V169.015H227.803ZM227.283 190.111C227.57 190.397 228.036 190.397 228.323 190.111L232.999 185.434C233.286 185.147 233.286 184.682 232.999 184.395C232.712 184.108 232.247 184.108 231.96 184.395L227.803 188.552L223.646 184.395C223.359 184.108 222.894 184.108 222.607 184.395C222.32 184.682 222.32 185.147 222.607 185.434L227.283 190.111ZM367.424 168.28H227.803V169.75H367.424V168.28ZM227.068 169.015V189.591H228.538V169.015H227.068Z" fill="#9897F9"/>
<text fill="black" xml:space="preserve" style="white-space: pre" font-family="National 2 Narrow" font-size="16" letter-spacing="0em"><tspan x="31" y="1176.15">* either temporarily or permanently</tspan></text>
<path d="M834.356 1149.79C835.578 1149.79 836.638 1150.86 836.638 1152.09C836.638 1153.32 835.578 1154.38 834.356 1154.38C833.133 1154.38 832.073 1153.32 832.073 1152.09C832.073 1150.86 833.133 1149.79 834.356 1149.79Z" fill="#282828"/>
<path d="M831.992 1156.19H836.557V1171.11H831.992V1156.19Z" fill="#282828"/>
<path d="M774.849 1149.79H773.3H767.594V1165.62V1171.11H772.159V1165.62V1164.47H773.3H774.849C778.843 1164.47 782.104 1161.19 782.104 1157.17C782.104 1153.15 778.925 1149.79 774.849 1149.79ZM774.849 1159.88H773.3H772.159V1158.73V1155.61V1154.46H773.3H774.849C776.316 1154.46 777.539 1155.69 777.539 1157.17C777.539 1158.65 776.398 1159.88 774.849 1159.88Z" fill="#282828"/>
<path d="M798.163 1156.43H793.598V1163.73C793.598 1165.21 792.375 1166.44 790.908 1166.44C789.44 1166.44 788.218 1165.21 788.218 1163.73V1156.43H783.653V1163.73C783.653 1167.75 786.913 1171.03 790.908 1171.03C794.902 1171.03 798.163 1167.75 798.163 1163.73V1156.43V1156.43Z" fill="#282828"/>
<path d="M845.768 1156.43C841.774 1156.43 838.513 1159.71 838.513 1163.73V1171.03H843.078V1163.73C843.078 1162.25 844.301 1161.02 845.768 1161.02C847.235 1161.02 848.458 1162.25 848.458 1163.73V1171.03H853.023V1163.73C853.023 1159.71 849.762 1156.43 845.768 1156.43Z" fill="#282828"/>
<path d="M809.575 1155.28V1156.43H808.434H806.885C802.89 1156.43 799.63 1159.71 799.63 1163.73C799.63 1167.75 802.89 1171.03 806.885 1171.03H808.434H814.14V1155.28V1149.79L809.575 1152.5V1155.28ZM809.656 1162.17V1165.29V1166.44H808.515H806.966C805.499 1166.44 804.276 1165.21 804.276 1163.73C804.276 1162.25 805.499 1161.02 806.966 1161.02H808.515H809.656V1162.17Z" fill="#282828"/>
<path d="M825.552 1155.28V1156.43H824.411H822.862C818.868 1156.43 815.607 1159.71 815.607 1163.73C815.607 1167.75 818.868 1171.03 822.862 1171.03H824.411H830.117V1155.28V1149.79L825.552 1152.5V1155.28ZM825.633 1162.17V1165.29V1166.44H824.411H822.862C821.395 1166.44 820.172 1165.21 820.172 1163.73C820.172 1162.25 821.395 1161.02 822.862 1161.02H824.411H825.552V1162.17H825.633V1162.17Z" fill="#282828"/>
<path d="M861.745 1156.43C857.751 1156.43 854.49 1159.71 854.49 1163.73C854.49 1167.75 857.751 1171.03 861.745 1171.03H863.294H864.435V1172.18V1172.91V1174.06V1175.21C864.435 1176.69 863.212 1177.92 861.745 1177.92C860.278 1177.92 859.055 1176.69 859.055 1175.21V1173.16L854.49 1175.87C854.816 1179.56 857.914 1182.51 861.745 1182.51C865.739 1182.51 869 1179.23 869 1175.21V1174.06V1172.18V1156.43H863.294H861.745ZM864.435 1161.19V1162.34V1165.45V1166.6H863.294H861.745C860.278 1166.6 859.055 1165.37 859.055 1163.89C859.055 1162.42 860.278 1161.19 861.745 1161.19H863.294H864.435Z" fill="#282828"/>
<path d="M735.314 1156.43C734.335 1156.43 733.439 1156.6 732.624 1156.92V1149.79L728.059 1152.5V1163.73V1165.37V1171.03H732.624V1165.37V1163.73C732.624 1162.25 733.846 1161.02 735.314 1161.02C736.781 1161.02 738.004 1162.25 738.004 1163.73V1171.03H742.569V1163.73C742.569 1159.71 739.308 1156.43 735.314 1156.43Z" fill="#282828"/>
<path d="M726.51 1149.79H712V1154.38H716.972V1171.03H721.537V1154.38H726.51V1149.79V1149.79Z" fill="#282828"/>
<path d="M751.372 1166.76C751.046 1166.76 750.394 1166.68 749.905 1166.44L754.144 1164.71L758.709 1162.83L757.894 1160.94L757.812 1160.78C757.731 1160.53 757.567 1160.29 757.404 1159.96C757.323 1159.88 757.323 1159.79 757.241 1159.71C757.241 1159.71 757.241 1159.63 757.16 1159.63L757.078 1159.55L756.997 1159.47C755.693 1157.66 753.736 1156.6 751.535 1156.43H751.046C747.052 1156.43 743.791 1159.71 743.791 1163.73C743.791 1164.06 743.791 1164.47 743.873 1164.88V1164.96C743.873 1164.96 743.873 1164.96 743.873 1165.04C743.873 1165.04 743.873 1165.04 743.873 1165.12C743.873 1165.37 743.954 1165.53 744.036 1165.78V1165.86V1165.94C744.117 1166.19 744.199 1166.52 744.362 1166.76V1166.85V1166.93C744.443 1167.17 744.606 1167.34 744.688 1167.58C744.688 1167.67 744.769 1167.67 744.769 1167.75C744.851 1167.91 745.014 1168.08 745.096 1168.24C745.096 1168.24 745.096 1168.24 745.096 1168.32C745.096 1168.32 745.096 1168.4 745.177 1168.4L745.259 1168.49C746.644 1170.21 748.845 1171.27 751.128 1171.27H756.1V1167.01C756.426 1166.76 753.247 1166.76 751.372 1166.76ZM748.356 1163.07L748.193 1163.16C748.356 1161.6 749.66 1160.29 751.209 1160.29C751.943 1160.29 752.677 1160.61 753.166 1161.02L749.66 1162.5L748.356 1163.07Z" fill="#282828"/>
</svg>
