<svg width="200" height="355" viewBox="0 0 200 355" fill="none" xmlns="http://www.w3.org/2000/svg">
<g id="minimap">
<rect width="200" height="354.717" fill="white"/>
<g id="sections">
<circle id="question" cx="103.298" cy="17.61" r="7.86164" fill="#9897F9"/>
<circle id="data" cx="43.8644" cy="69.1824" r="7.86164" fill="#9897F9"/>
<circle id="exist" cx="66.1915" cy="115.094" r="7.86164" fill="#9897F9"/>
<circle id="ethical" cx="86.9462" cy="156.604" r="7.86164" fill="#9897F9"/>
<circle id="results" cx="137.261" cy="173.27" r="7.86164" fill="#9897F9"/>
<circle id="plan" cx="158.015" cy="265.723" r="7.86164" fill="#9897F9"/>
<circle id="make" cx="178.456" cy="311.321" r="7.86164" fill="#9897F9"/>
<circle id="right" cx="137.261" cy="228.302" r="7.86164" fill="#9897F9"/>
</g>
<g id="circles">
<circle id="Ellipse 2" cx="136.003" cy="36.7925" r="4.71698" fill="#E5E5E5"/>
<circle id="Ellipse 36" cx="137.261" cy="69.8113" r="4.71698" fill="#E5E5E5"/>
<circle id="Ellipse 37" cx="102.717" cy="53.717" r="4.71698" fill="#E5E5E5"/>
<circle id="Ellipse 3" cx="66.5059" cy="87.7358" r="4.71698" fill="#E5E5E5"/>
<circle id="Ellipse 9" cx="86.6317" cy="128.931" r="4.71698" fill="#E5E5E5"/>
<circle id="Ellipse 15" cx="86.9462" cy="188.994" r="4.71698" fill="#E5E5E5"/>
<circle id="Ellipse 19" cx="118.707" cy="196.855" r="4.71698" fill="#E5E5E5"/>
<circle id="Ellipse 22" cx="118.707" cy="217.296" r="4.71698" fill="#E5E5E5"/>
<circle id="Ellipse 20" cx="137.575" cy="196.855" r="4.71698" fill="#E5E5E5"/>
<circle id="Ellipse 21" cx="157.386" cy="196.855" r="4.71698" fill="#E5E5E5"/>
<circle id="Ellipse 23" cx="146.695" cy="121.069" r="4.71698" fill="#E5E5E5"/>
<circle id="Ellipse 17" cx="108.644" cy="173.585" r="4.71698" fill="#E5E5E5"/>
<circle id="Ellipse 16" cx="86.9462" cy="209.748" r="4.71698" fill="#E5E5E5"/>
<circle id="Ellipse 6" cx="22.1663" cy="87.7358" r="4.71698" fill="#E5E5E5"/>
<circle id="Ellipse 10" cx="46.3801" cy="128.931" r="4.71698" fill="#E5E5E5"/>
<circle id="Ellipse 25" cx="158.015" cy="243.396" r="4.71698" fill="#E5E5E5"/>
<circle id="Ellipse 26" cx="117.764" cy="243.396" r="4.71698" fill="#E5E5E5"/>
<circle id="Ellipse 29" cx="178.141" cy="280.818" r="4.71698" fill="#E5E5E5"/>
<circle id="Ellipse 30" cx="137.89" cy="280.818" r="4.71698" fill="#E5E5E5"/>
<circle id="Ellipse 33" cx="147.952" cy="301.572" r="4.71698" fill="#E5E5E5"/>
<circle id="Ellipse 35" cx="151.726" cy="334.906" r="4.71698" fill="#E5E5E5"/>
<circle id="Ellipse 34" cx="131.915" cy="324.843" r="4.71698" fill="#E5E5E5"/>
<circle id="Ellipse 31" cx="117.764" cy="281.132" r="4.71698" fill="#E5E5E5"/>
<circle id="Ellipse 27" cx="117.764" cy="265.723" r="4.71698" fill="#E5E5E5"/>
<circle id="Ellipse 12" cx="66.5059" cy="160.063" r="4.71698" fill="#E5E5E5"/>
<circle id="Ellipse 13" cx="22.1663" cy="160.063" r="4.71698" fill="#E5E5E5"/>
<circle id="Ellipse 11" cx="46.3801" cy="148.742" r="4.71698" fill="#E5E5E5"/>
<circle id="Ellipse 7" cx="22.1663" cy="111.635" r="4.71698" fill="#E5E5E5"/>
<circle id="Ellipse 4" cx="68.7072" cy="36.7925" r="4.71698" fill="#E5E5E5"/>
</g>
<path id="Star 1" d="M121.584 295.843C121.866 294.974 123.096 294.974 123.378 295.843L124.034 297.862C124.16 298.251 124.523 298.514 124.931 298.514H127.054C127.968 298.514 128.348 299.683 127.609 300.221L125.891 301.468C125.561 301.709 125.422 302.135 125.548 302.523L126.205 304.542C126.487 305.411 125.492 306.134 124.753 305.597L123.035 304.349C122.705 304.109 122.257 304.109 121.926 304.349L120.209 305.597C119.469 306.134 118.475 305.411 118.757 304.542L119.413 302.523C119.539 302.135 119.401 301.709 119.07 301.468L117.353 300.221C116.614 299.683 116.994 298.514 117.907 298.514H120.03C120.439 298.514 120.801 298.251 120.928 297.862L121.584 295.843Z" fill="#C8C8C8"/>
<g id="bin 1" clip-path="url(#clip0)">
<path id="Vector" d="M16.2701 291.077V300.904C16.2701 301.445 16.7123 301.887 17.2528 301.887H26.0971C26.6376 301.887 27.0798 301.445 27.0798 300.904V291.077H16.2701ZM19.2182 299.921H18.2355V293.042H19.2182V299.921ZM21.1836 299.921H20.2009V293.042H21.1836V299.921ZM23.149 299.921H22.1663V293.042H23.149V299.921ZM25.1144 299.921H24.1317V293.042H25.1144V299.921Z" fill="#C8C8C8"/>
<path id="Vector_2" d="M27.3255 288.129H24.1317V286.901C24.1317 286.495 23.8 286.164 23.3947 286.164H19.9552C19.5498 286.164 19.2182 286.495 19.2182 286.901V288.129H16.0244C15.619 288.129 15.2874 288.461 15.2874 288.866V290.094H28.0625V288.866C28.0625 288.461 27.7308 288.129 27.3255 288.129ZM23.149 288.129H20.2009V287.159H23.149V288.129Z" fill="#C8C8C8"/>
</g>
<g id="arrows">
<path id="Vector 1" d="M137.086 61.8838C137.209 62.0066 137.408 62.0066 137.531 61.8838L139.532 59.8825C139.655 59.7597 139.655 59.5606 139.532 59.4378C139.409 59.315 139.21 59.315 139.087 59.4378L137.308 61.2167L135.529 59.4378C135.407 59.315 135.207 59.315 135.085 59.4378C134.962 59.5606 134.962 59.7597 135.085 59.8825L137.086 61.8838ZM136.994 46.6409V61.6614H137.623V46.6409H136.994Z" fill="#9897F9" fill-opacity="0.5"/>
<path id="Vector 2" d="M114.397 14.872C114.274 14.9948 114.274 15.1939 114.397 15.3167L116.398 17.318C116.521 17.4408 116.72 17.4408 116.843 17.318C116.966 17.1952 116.966 16.9961 116.843 16.8732L115.064 15.0944L116.843 13.3155C116.966 13.1927 116.966 12.9936 116.843 12.8708C116.72 12.7479 116.521 12.7479 116.398 12.8708L114.397 14.872ZM146.567 69.1211C149.456 66.9925 152.067 62.5192 153.58 57.0582C155.097 51.5853 155.527 45.0672 154.004 38.8032C152.481 32.5343 149 26.5195 142.702 22.0757C136.407 17.6339 127.322 14.7799 114.619 14.7799V15.4088C127.23 15.4088 136.178 18.2419 142.34 22.5895C148.499 26.9351 151.901 32.8118 153.393 38.9517C154.887 45.0965 154.467 51.5046 152.974 56.8902C151.479 62.2876 148.922 66.6052 146.194 68.6148L146.567 69.1211Z" fill="#9897F9" fill-opacity="0.5"/>
<path id="Vector 3" d="M103.489 37.3976H103.174V37.712H103.489V37.3976ZM127.916 37.6199C128.038 37.4971 128.038 37.298 127.916 37.1752L125.914 35.174C125.792 35.0512 125.592 35.0512 125.47 35.174C125.347 35.2968 125.347 35.4959 125.47 35.6187L127.249 37.3976L125.47 39.1765C125.347 39.2993 125.347 39.4984 125.47 39.6212C125.592 39.744 125.792 39.744 125.914 39.6212L127.916 37.6199ZM103.174 30.0029V37.3976H103.803V30.0029H103.174ZM103.489 37.712H127.693V37.0831H103.489V37.712Z" fill="#9897F9" fill-opacity="0.5"/>
<path id="Vector 53" d="M103.267 46.8633C103.389 46.9861 103.589 46.9861 103.711 46.8633L105.713 44.862C105.835 44.7392 105.835 44.5401 105.713 44.4173C105.59 44.2945 105.391 44.2945 105.268 44.4173L103.489 46.1962L101.71 44.4173C101.587 44.2945 101.388 44.2945 101.265 44.4173C101.143 44.5401 101.143 44.7392 101.265 44.862L103.267 46.8633ZM103.174 36.4732V46.6409H103.803V36.4732H103.174Z" fill="#9897F9" fill-opacity="0.5"/>
<path id="Vector 4" d="M76.9825 37.1752C76.8597 37.298 76.8597 37.4971 76.9825 37.6199L78.9838 39.6212C79.1066 39.744 79.3057 39.744 79.4285 39.6212C79.5513 39.4984 79.5513 39.2993 79.4285 39.1765L77.6496 37.3976L79.4285 35.6187C79.5513 35.4959 79.5513 35.2968 79.4285 35.174C79.3057 35.0512 79.1066 35.0512 78.9838 35.174L76.9825 37.1752ZM103.258 37.0831H77.2049V37.712H103.258V37.0831Z" fill="#9897F9" fill-opacity="0.5"/>
<path id="Vector 5" d="M43.8644 37.7358V37.4214H43.5499V37.7358H43.8644ZM43.642 59.3418C43.7649 59.4647 43.964 59.4647 44.0868 59.3418L46.088 57.3406C46.2108 57.2178 46.2108 57.0187 46.088 56.8959C45.9652 56.7731 45.7661 56.7731 45.6433 56.8959L43.8644 58.6748L42.0855 56.8959C41.9627 56.7731 41.7636 56.7731 41.6408 56.8959C41.518 57.0187 41.518 57.2178 41.6408 57.3406L43.642 59.3418ZM59.2732 37.4214H43.8644V38.0503H59.2732V37.4214ZM43.5499 37.7358V59.1195H44.1789V37.7358H43.5499Z" fill="#9897F9" fill-opacity="0.5"/>
<path id="Vector 6" d="M43.55 87.7358H43.2355V88.0503H43.55V87.7358ZM59.1811 87.9582C59.3039 87.8354 59.3039 87.6363 59.1811 87.5135L57.1799 85.5122C57.0571 85.3894 56.858 85.3894 56.7352 85.5122C56.6123 85.635 56.6123 85.8341 56.7352 85.9569L58.514 87.7358L56.7352 89.5147C56.6123 89.6375 56.6123 89.8366 56.7352 89.9594C56.858 90.0822 57.0571 90.0822 57.1799 89.9594L59.1811 87.9582ZM43.2355 78.6163V87.7358H43.8644V78.6163H43.2355ZM43.55 88.0503H58.9588V87.4214H43.55V88.0503Z" fill="#9897F9" fill-opacity="0.5"/>
<path id="Vector 7" d="M29.1767 87.5135C29.0539 87.6363 29.0539 87.8354 29.1767 87.9582L31.1779 89.9594C31.3007 90.0823 31.4998 90.0823 31.6226 89.9594C31.7454 89.8366 31.7454 89.6375 31.6226 89.5147L29.8437 87.7358L31.6226 85.957C31.7454 85.8341 31.7454 85.635 31.6226 85.5122C31.4998 85.3894 31.3007 85.3894 31.1779 85.5122L29.1767 87.5135ZM43.55 87.4214H29.399V88.0503H43.55V87.4214Z" fill="#9897F9" fill-opacity="0.5"/>
<path id="Vector 11" d="M66.1915 129.245H65.877V129.56H66.1915V129.245ZM79.3069 129.468C79.4297 129.345 79.4297 129.146 79.3069 129.023L77.3057 127.022C77.1829 126.899 76.9837 126.899 76.8609 127.022C76.7381 127.145 76.7381 127.344 76.8609 127.466L78.6398 129.245L76.8609 131.024C76.7381 131.147 76.7381 131.346 76.8609 131.469C76.9837 131.592 77.1829 131.592 77.3057 131.469L79.3069 129.468ZM65.877 124.214V129.245H66.5059V124.214H65.877ZM66.1915 129.56H79.0845V128.931H66.1915V129.56Z" fill="#9897F9" fill-opacity="0.5"/>
<path id="Vector 12" d="M53.3905 129.023C53.2677 129.146 53.2677 129.345 53.3905 129.468L55.3917 131.469C55.5145 131.592 55.7137 131.592 55.8365 131.469C55.9593 131.346 55.9593 131.147 55.8365 131.024L54.0576 129.245L55.8365 127.466C55.9593 127.344 55.9593 127.145 55.8365 127.022C55.7137 126.899 55.5145 126.899 55.3917 127.022L53.3905 129.023ZM66.2725 128.931H53.6129V129.56H66.2725V128.931Z" fill="#9897F9" fill-opacity="0.5"/>
<path id="Vector 8" d="M33.4211 68.4316C33.5275 68.2944 33.5025 68.0968 33.3652 67.9905L31.1282 66.2568C30.9909 66.1504 30.7934 66.1754 30.687 66.3127C30.5806 66.45 30.6057 66.6475 30.7429 66.7539L32.7314 68.2949L31.1903 70.2834C31.0839 70.4207 31.109 70.6182 31.2463 70.7246C31.3835 70.831 31.5811 70.8059 31.6875 70.6687L33.4211 68.4316ZM15.5116 110.52C11.1667 103.848 10.07 94.0426 12.8348 85.5534C15.5942 77.0809 22.1879 69.9484 33.2121 68.551L33.133 67.927C21.8302 69.3598 15.0592 76.6927 12.2368 85.3586C9.41987 94.0078 10.5244 104.014 14.9846 110.863L15.5116 110.52Z" fill="#9897F9" fill-opacity="0.5"/>
<path id="Vector 9" d="M21.8749 104.384C21.9977 104.507 22.1968 104.507 22.3196 104.384L24.3208 102.383C24.4436 102.26 24.4436 102.061 24.3208 101.938C24.198 101.816 23.9989 101.816 23.8761 101.938L22.0972 103.717L20.3183 101.938C20.1955 101.816 19.9964 101.816 19.8736 101.938C19.7508 102.061 19.7508 102.26 19.8736 102.383L21.8749 104.384ZM21.7828 94.5969V104.162H22.4117V94.5969H21.7828Z" fill="#9897F9" fill-opacity="0.5"/>
<path id="Vector 10" d="M66.2836 105.513C66.4064 105.636 66.6055 105.636 66.7283 105.513L68.7295 103.512C68.8523 103.389 68.8523 103.19 68.7295 103.067C68.6067 102.945 68.4076 102.945 68.2848 103.067L66.5059 104.846L64.727 103.067C64.6042 102.945 64.4051 102.945 64.2823 103.067C64.1595 103.19 64.1595 103.389 64.2823 103.512L66.2836 105.513ZM66.1915 94.3396V105.291H66.8204V94.3396H66.1915Z" fill="#9897F9" fill-opacity="0.5"/>
<path id="Vector 16" d="M22.3887 117.388C22.2658 117.265 22.0667 117.265 21.9439 117.388L19.9427 119.389C19.8199 119.512 19.8199 119.711 19.9427 119.834C20.0655 119.956 20.2646 119.956 20.3874 119.834L22.1663 118.055L23.9452 119.834C24.068 119.956 24.2671 119.956 24.3899 119.834C24.5127 119.711 24.5127 119.512 24.3899 119.389L22.3887 117.388ZM22.4808 154.088V117.61H21.8518V154.088H22.4808Z" fill="#9897F9" fill-opacity="0.5"/>
<path id="Vector 68" d="M21.9439 282.927C22.0667 283.05 22.2658 283.05 22.3887 282.927L24.3899 280.925C24.5127 280.803 24.5127 280.604 24.3899 280.481C24.2671 280.358 24.068 280.358 23.9452 280.481L22.1663 282.26L20.3874 280.481C20.2646 280.358 20.0655 280.358 19.9427 280.481C19.8199 280.604 19.8199 280.803 19.9427 280.925L21.9439 282.927ZM21.8518 167.61V282.704H22.4808V167.61H21.8518Z" fill="#9897F9" fill-opacity="0.5"/>
<path id="Vector 19" d="M86.4094 146.868C86.5322 146.991 86.7313 146.991 86.8541 146.868L88.8553 144.867C88.9781 144.744 88.9781 144.545 88.8553 144.422C88.7325 144.299 88.5334 144.299 88.4106 144.422L86.6317 146.201L84.8528 144.422C84.73 144.299 84.5309 144.299 84.4081 144.422C84.2853 144.545 84.2853 144.744 84.4081 144.867L86.4094 146.868ZM86.3172 135.849V146.646H86.9462V135.849H86.3172Z" fill="#9897F9" fill-opacity="0.5"/>
<path id="Vector 55" d="M46.1578 142.466C46.2806 142.588 46.4797 142.588 46.6025 142.466L48.6037 140.464C48.7265 140.341 48.7265 140.142 48.6037 140.02C48.4809 139.897 48.2818 139.897 48.159 140.02L46.3801 141.798L44.6012 140.02C44.4784 139.897 44.2793 139.897 44.1565 140.02C44.0337 140.142 44.0337 140.341 44.1565 140.464L46.1578 142.466ZM46.0657 135.22V142.243H46.6946V135.22H46.0657Z" fill="#9897F9" fill-opacity="0.5"/>
<path id="Vector 20" d="M80.3325 163.758C80.2893 163.59 80.1179 163.489 79.9497 163.532L77.2085 164.236C77.0402 164.279 76.9389 164.45 76.9821 164.619C77.0253 164.787 77.1967 164.888 77.3649 164.845L79.8016 164.219L80.4273 166.656C80.4705 166.824 80.6419 166.926 80.8101 166.882C80.9783 166.839 81.0796 166.668 81.0364 166.5L80.3325 163.758ZM80.2895 208.001C76.3367 202.081 74.5735 194.059 74.6872 186.011C74.8008 177.963 76.7904 169.929 80.2986 163.997L79.7573 163.676C76.1822 169.722 74.1732 177.869 74.0583 186.002C73.9435 194.134 75.7219 202.293 79.7664 208.351L80.2895 208.001Z" fill="#9897F9" fill-opacity="0.5"/>
<path id="Vector 21" d="M86.7238 202.9C86.8466 203.023 87.0457 203.023 87.1685 202.9L89.1698 200.899C89.2926 200.776 89.2926 200.577 89.1698 200.454C89.047 200.331 88.8479 200.331 88.7251 200.454L86.9462 202.233L85.1673 200.454C85.0445 200.331 84.8454 200.331 84.7226 200.454C84.5998 200.577 84.5998 200.776 84.7226 200.899L86.7238 202.9ZM86.6317 195.283V202.678H87.2606V195.283H86.6317Z" fill="#9897F9" fill-opacity="0.5"/>
<path id="Vector 23" d="M86.7238 182.553C86.8466 182.676 87.0457 182.676 87.1685 182.553L89.1698 180.552C89.2926 180.429 89.2926 180.23 89.1698 180.107C89.047 179.984 88.8479 179.984 88.7251 180.107L86.9462 181.886L85.1673 180.107C85.0445 179.984 84.8454 179.984 84.7226 180.107C84.5998 180.23 84.5998 180.429 84.7226 180.552L86.7238 182.553ZM86.6317 166.667V182.33H87.2606V166.667H86.6317Z" fill="#9897F9" fill-opacity="0.5"/>
<path id="Vector 24" d="M101.215 173.772C101.337 173.649 101.337 173.45 101.215 173.327L99.2134 171.326C99.0906 171.203 98.8915 171.203 98.7687 171.326C98.6459 171.448 98.6459 171.648 98.7687 171.77L100.548 173.549L98.7687 175.328C98.6459 175.451 98.6459 175.65 98.7687 175.773C98.8915 175.896 99.0906 175.896 99.2134 175.773L101.215 173.772ZM86.9462 173.864H100.992V173.235H86.9462V173.864Z" fill="#9897F9" fill-opacity="0.5"/>
<path id="Vector 25" d="M126.16 173.748C126.283 173.625 126.283 173.426 126.16 173.303L124.159 171.302C124.036 171.179 123.837 171.179 123.714 171.302C123.591 171.425 123.591 171.624 123.714 171.746L125.493 173.525L123.714 175.304C123.591 175.427 123.591 175.626 123.714 175.749C123.837 175.872 124.036 175.872 124.159 175.749L126.16 173.748ZM115.308 173.84H125.938V173.211H115.308V173.84Z" fill="#9897F9" fill-opacity="0.5"/>
<path id="Vector 26" d="M153.181 121.406C153.02 121.471 152.942 121.654 153.007 121.816L154.063 124.441C154.128 124.602 154.311 124.68 154.472 124.615C154.633 124.551 154.711 124.367 154.647 124.206L153.707 121.872L156.041 120.933C156.202 120.869 156.281 120.685 156.216 120.524C156.151 120.363 155.968 120.285 155.807 120.35L153.181 121.406ZM163.261 194.208C166.252 189.94 168.439 183.819 169.717 176.917C170.996 170.012 171.371 162.303 170.72 154.844C170.07 147.386 168.393 140.165 165.562 134.242C162.73 128.32 158.73 123.671 153.422 121.409L153.175 121.987C158.297 124.17 162.203 128.676 164.994 134.514C167.785 140.35 169.448 147.493 170.094 154.898C170.739 162.302 170.367 169.955 169.099 176.803C167.829 183.656 165.666 189.681 162.746 193.847L163.261 194.208Z" fill="#9897F9" fill-opacity="0.5"/>
<path id="Vector 27" d="M53.3905 65.5009C53.2677 65.6237 53.2677 65.8228 53.3905 65.9456L55.3917 67.9469C55.5145 68.0697 55.7137 68.0697 55.8365 67.9469C55.9593 67.8241 55.9593 67.625 55.8365 67.5022L54.0576 65.7233L55.8365 63.9444C55.9593 63.8216 55.9593 63.6225 55.8365 63.4997C55.7137 63.3769 55.5145 63.3769 55.3917 63.4997L53.3905 65.5009ZM137.261 119.182C119.208 119.182 107.748 105.874 96.0468 92.4038C84.3887 78.9828 72.4959 65.4088 53.6129 65.4088L53.6129 66.0377C72.1643 66.0377 83.875 79.3505 95.572 92.8163C107.226 106.233 118.872 119.811 137.261 119.811V119.182Z" fill="#9897F9" fill-opacity="0.5"/>
<path id="Vector 29" d="M137.575 185.479H137.261V185.793H137.575V185.479ZM156.757 185.479H157.072V185.164H156.757V185.479ZM156.535 190.788C156.658 190.911 156.857 190.911 156.98 190.788L158.981 188.787C159.104 188.664 159.104 188.465 158.981 188.342C158.858 188.22 158.659 188.22 158.536 188.342L156.757 190.121L154.979 188.342C154.856 188.22 154.657 188.22 154.534 188.342C154.411 188.465 154.411 188.664 154.534 188.787L156.535 190.788ZM137.261 181.761V185.479H137.89V181.761H137.261ZM137.575 185.793H156.757V185.164H137.575V185.793ZM156.443 185.479V190.566H157.072V185.479H156.443Z" fill="#9897F9" fill-opacity="0.5"/>
<path id="Vector 30" d="M118.707 185.535V185.22H118.393V185.535H118.707ZM118.485 190.788C118.608 190.911 118.807 190.911 118.93 190.788L120.931 188.787C121.054 188.664 121.054 188.465 120.931 188.342C120.808 188.22 120.609 188.22 120.486 188.342L118.707 190.121L116.928 188.342C116.805 188.22 116.606 188.22 116.484 188.342C116.361 188.465 116.361 188.664 116.484 188.787L118.485 190.788ZM137.89 185.22H118.707V185.849H137.89V185.22ZM118.393 185.535V190.566H119.022V185.535H118.393Z" fill="#9897F9" fill-opacity="0.5"/>
<path id="Vector 31" d="M137.229 190.302C137.352 190.425 137.551 190.425 137.674 190.302L139.675 188.301C139.798 188.178 139.798 187.979 139.675 187.856C139.552 187.734 139.353 187.734 139.23 187.856L137.451 189.635L135.672 187.856C135.55 187.734 135.35 187.734 135.228 187.856C135.105 187.979 135.105 188.178 135.228 188.301L137.229 190.302ZM137.137 185.458V190.08H137.766V185.458H137.137Z" fill="#9897F9" fill-opacity="0.5"/>
<path id="Vector 32" d="M118.485 211.076C118.608 211.199 118.807 211.199 118.93 211.076L120.931 209.075C121.054 208.952 121.054 208.753 120.931 208.63C120.808 208.507 120.609 208.507 120.486 208.63L118.707 210.409L116.928 208.63C116.805 208.507 116.606 208.507 116.484 208.63C116.361 208.753 116.361 208.952 116.484 209.075L118.485 211.076ZM118.393 203.459V210.854H119.022V203.459H118.393Z" fill="#9897F9" fill-opacity="0.5"/>
<path id="Vector 33" d="M126.477 178.524C126.6 178.401 126.6 178.202 126.477 178.08L124.475 176.078C124.353 175.955 124.154 175.955 124.031 176.078C123.908 176.201 123.908 176.4 124.031 176.523L125.81 178.302L124.031 180.081C123.908 180.204 123.908 180.403 124.031 180.525C124.154 180.648 124.353 180.648 124.475 180.525L126.477 178.524ZM112.548 214.412C106.669 210.115 104.259 201.17 106.263 193.268C107.262 189.327 109.356 185.667 112.643 182.993C115.927 180.32 120.422 178.616 126.254 178.616V177.987C120.294 177.987 115.654 179.731 112.246 182.505C108.839 185.277 106.681 189.061 105.653 193.113C103.603 201.198 106.04 210.435 112.177 214.919L112.548 214.412Z" fill="#9897F9" fill-opacity="0.5"/>
<path id="Vector 36" d="M137.353 217.716C137.476 217.838 137.675 217.838 137.797 217.716L139.799 215.714C139.922 215.592 139.922 215.393 139.799 215.27C139.676 215.147 139.477 215.147 139.354 215.27L137.575 217.049L135.796 215.27C135.673 215.147 135.474 215.147 135.351 215.27C135.229 215.393 135.229 215.592 135.351 215.714L137.353 217.716ZM137.261 204.717V217.493H137.89V204.717H137.261Z" fill="#9897F9" fill-opacity="0.5"/>
<path id="Vector 37" d="M117.541 258.92C117.664 259.043 117.863 259.043 117.986 258.92L119.987 256.919C120.11 256.796 120.11 256.597 119.987 256.474C119.865 256.351 119.665 256.351 119.543 256.474L117.764 258.253L115.985 256.474C115.862 256.351 115.663 256.351 115.54 256.474C115.417 256.597 115.417 256.796 115.54 256.919L117.541 258.92ZM117.449 249.686V258.698H118.078V249.686H117.449Z" fill="#9897F9" fill-opacity="0.5"/>
<path id="Vector 67" d="M177.919 301.373C178.042 301.496 178.241 301.496 178.364 301.373L180.365 299.372C180.488 299.249 180.488 299.05 180.365 298.927C180.242 298.804 180.043 298.804 179.92 298.927L178.141 300.706L176.362 298.927C176.239 298.804 176.04 298.804 175.918 298.927C175.795 299.05 175.795 299.249 175.918 299.372L177.919 301.373ZM177.827 286.792V301.151H178.456V286.792H177.827Z" fill="#9897F9" fill-opacity="0.5"/>
<path id="Vector 61" d="M157.793 256.404C157.916 256.527 158.115 256.527 158.238 256.404L160.239 254.403C160.362 254.28 160.362 254.081 160.239 253.959C160.116 253.836 159.917 253.836 159.794 253.959L158.015 255.737L156.236 253.959C156.114 253.836 155.915 253.836 155.792 253.959C155.669 254.081 155.669 254.28 155.792 254.403L157.793 256.404ZM157.701 249.686V256.182H158.33V249.686H157.701Z" fill="#9897F9" fill-opacity="0.5"/>
<path id="Vector 46" d="M147.952 312.264H147.638V312.579H147.952V312.264ZM148.175 307.639C148.052 307.516 147.853 307.516 147.73 307.639L145.729 309.641C145.606 309.763 145.606 309.962 145.729 310.085C145.852 310.208 146.051 310.208 146.174 310.085L147.952 308.306L149.731 310.085C149.854 310.208 150.053 310.208 150.176 310.085C150.299 309.962 150.299 309.763 150.176 309.641L148.175 307.639ZM169.022 311.95H147.952V312.579H169.022V311.95ZM148.267 312.264V307.862H147.638V312.264H148.267Z" fill="#9897F9" fill-opacity="0.5"/>
<path id="Vector 47" d="M131.063 301.35C130.941 301.473 130.941 301.672 131.063 301.795L133.065 303.796C133.187 303.919 133.387 303.919 133.509 303.796C133.632 303.673 133.632 303.474 133.509 303.351L131.731 301.572L133.509 299.793C133.632 299.671 133.632 299.472 133.509 299.349C133.387 299.226 133.187 299.226 133.065 299.349L131.063 301.35ZM141.222 301.258H131.286V301.887H141.222V301.258Z" fill="#9897F9" fill-opacity="0.5"/>
<path id="Vector 48" d="M131.915 312.24V311.926H131.6V312.24H131.915ZM131.692 318.611C131.815 318.734 132.014 318.734 132.137 318.611L134.138 316.61C134.261 316.487 134.261 316.288 134.138 316.166C134.016 316.043 133.816 316.043 133.694 316.166L131.915 317.944L130.136 316.166C130.013 316.043 129.814 316.043 129.691 316.166C129.568 316.288 129.568 316.487 129.691 316.61L131.692 318.611ZM147.86 311.926H131.915V312.555H147.86V311.926ZM131.6 312.24V318.389H132.229V312.24H131.6Z" fill="#9897F9" fill-opacity="0.5"/>
<path id="Vector 49" d="M178.364 322.419C178.241 322.296 178.042 322.296 177.919 322.419L175.918 324.42C175.795 324.543 175.795 324.742 175.918 324.865C176.04 324.988 176.239 324.988 176.362 324.865L178.141 323.086L179.92 324.865C180.043 324.988 180.242 324.988 180.365 324.865C180.488 324.742 180.488 324.543 180.365 324.42L178.364 322.419ZM158.644 335.22C163.34 335.22 168.27 334.431 172.039 332.472C175.822 330.507 178.456 327.348 178.456 322.641H177.827C177.827 327.055 175.381 330.027 171.749 331.914C168.103 333.808 163.285 334.591 158.644 334.591V335.22Z" fill="#9897F9" fill-opacity="0.5"/>
<path id="Vector 50" d="M131.915 334.996H131.6V335.311H131.915V334.996ZM145.54 335.219C145.663 335.096 145.663 334.897 145.54 334.774L143.539 332.773C143.416 332.65 143.217 332.65 143.094 332.773C142.971 332.895 142.971 333.094 143.094 333.217L144.873 334.996L143.094 336.775C142.971 336.898 142.971 337.097 143.094 337.22C143.217 337.343 143.416 337.343 143.539 337.22L145.54 335.219ZM131.6 331.761V334.996H132.229V331.761H131.6ZM131.915 335.311H145.318V334.682H131.915V335.311Z" fill="#9897F9" fill-opacity="0.5"/>
<path id="Vector 54" d="M62.7323 52.8302V52.5157H62.4179V52.8302H62.7323ZM62.51 59.6563C62.6328 59.7791 62.8319 59.7791 62.9547 59.6563L64.9559 57.6551C65.0787 57.5323 65.0787 57.3332 64.9559 57.2104C64.8331 57.0876 64.634 57.0876 64.5112 57.2104L62.7323 58.9893L60.9534 57.2104C60.8306 57.0876 60.6315 57.0876 60.5087 57.2104C60.3859 57.3332 60.3859 57.5323 60.5087 57.6551L62.51 59.6563ZM95.4367 52.5157H62.7323V53.1447H95.4367V52.5157ZM62.4179 52.8302V59.434H63.0468V52.8302H62.4179Z" fill="#9897F9" fill-opacity="0.5"/>
<path id="Vector 59" d="M137.575 243.711H137.261V244.025H137.575V243.711ZM150.691 243.933C150.813 243.81 150.813 243.611 150.691 243.488L148.689 241.487C148.566 241.364 148.367 241.364 148.245 241.487C148.122 241.61 148.122 241.809 148.245 241.932L150.023 243.711L148.245 245.49C148.122 245.612 148.122 245.812 148.245 245.934C148.367 246.057 148.566 246.057 148.689 245.934L150.691 243.933ZM137.261 238.679V243.711H137.89V238.679H137.261ZM137.575 244.025H150.468V243.396H137.575V244.025Z" fill="#9897F9" fill-opacity="0.5"/>
<path id="Vector 60" d="M124.774 243.488C124.651 243.611 124.651 243.81 124.774 243.933L126.775 245.934C126.898 246.057 127.097 246.057 127.22 245.934C127.343 245.811 127.343 245.612 127.22 245.49L125.441 243.711L127.22 241.932C127.343 241.809 127.343 241.61 127.22 241.487C127.097 241.364 126.898 241.364 126.775 241.487L124.774 243.488ZM137.656 243.396H124.996V244.025H137.656V243.396Z" fill="#9897F9" fill-opacity="0.5"/>
<path id="Vector 63" d="M157.701 281.132H157.386V281.446H157.701V281.132ZM170.816 281.354C170.939 281.232 170.939 281.032 170.816 280.91L168.815 278.908C168.692 278.786 168.493 278.786 168.37 278.908C168.248 279.031 168.248 279.23 168.37 279.353L170.149 281.132L168.37 282.911C168.248 283.034 168.248 283.233 168.37 283.356C168.493 283.478 168.692 283.478 168.815 283.356L170.816 281.354ZM157.386 276.101V281.132H158.015V276.101H157.386ZM157.701 281.446H170.594V280.818H157.701V281.446Z" fill="#9897F9" fill-opacity="0.5"/>
<path id="Vector 64" d="M144.9 280.91C144.777 281.033 144.777 281.232 144.9 281.354L146.901 283.356C147.024 283.478 147.223 283.478 147.346 283.356C147.469 283.233 147.469 283.034 147.346 282.911L145.567 281.132L147.346 279.353C147.469 279.23 147.469 279.031 147.346 278.908C147.223 278.786 147.024 278.786 146.901 278.908L144.9 280.91ZM157.782 280.818H145.122V281.447H157.782V280.818Z" fill="#9897F9" fill-opacity="0.5"/>
<path id="Vector 56" d="M46.0657 160.377H45.7512V160.692H46.0657V160.377ZM59.1811 160.6C59.3039 160.477 59.3039 160.278 59.1811 160.155L57.1799 158.154C57.0571 158.031 56.858 158.031 56.7351 158.154C56.6123 158.277 56.6123 158.476 56.7351 158.599L58.514 160.377L56.7351 162.156C56.6123 162.279 56.6123 162.478 56.7351 162.601C56.858 162.724 57.0571 162.724 57.1799 162.601L59.1811 160.6ZM45.7512 155.346V160.377H46.3801V155.346H45.7512ZM46.0657 160.692H58.9588V160.063H46.0657V160.692Z" fill="#9897F9" fill-opacity="0.5"/>
<path id="Vector 57" d="M30.4345 160.155C30.3117 160.278 30.3117 160.477 30.4345 160.6L32.4357 162.601C32.5586 162.724 32.7577 162.724 32.8805 162.601C33.0033 162.478 33.0033 162.279 32.8805 162.156L31.1016 160.377L32.8805 158.598C33.0033 158.476 33.0033 158.277 32.8805 158.154C32.7577 158.031 32.5586 158.031 32.4357 158.154L30.4345 160.155ZM46.1467 160.063H30.6569V160.692H46.1467V160.063Z" fill="#9897F9" fill-opacity="0.5"/>
<path id="Vector 58" d="M77.7346 160.914C77.8574 160.791 77.8574 160.592 77.7346 160.469L75.7333 158.468C75.6105 158.345 75.4114 158.345 75.2886 158.468C75.1658 158.591 75.1658 158.79 75.2886 158.913L77.0675 160.692L75.2886 162.471C75.1658 162.594 75.1658 162.793 75.2886 162.915C75.4114 163.038 75.6105 163.038 75.7333 162.915L77.7346 160.914ZM73.4242 161.006H77.5122V160.377H73.4242V161.006Z" fill="#9897F9" fill-opacity="0.5"/>
<path id="Vector 62" d="M148.489 265.946C148.612 265.823 148.612 265.624 148.489 265.501L146.488 263.5C146.365 263.377 146.166 263.377 146.043 263.5C145.92 263.622 145.92 263.822 146.043 263.944L147.822 265.723L146.043 267.502C145.92 267.625 145.92 267.824 146.043 267.947C146.166 268.07 146.365 268.07 146.488 267.947L148.489 265.946ZM124.682 266.038H148.267V265.409H124.682V266.038Z" fill="#9897F9" fill-opacity="0.5"/>
<path id="Vector 66" d="M148.54 269.967C148.626 269.816 148.573 269.624 148.422 269.538L145.962 268.139C145.811 268.053 145.619 268.106 145.533 268.257C145.447 268.408 145.5 268.6 145.651 268.686L147.838 269.929L146.595 272.116C146.509 272.267 146.562 272.459 146.713 272.545C146.863 272.631 147.055 272.578 147.141 272.427L148.54 269.967ZM123.193 277.033L148.35 270.115L148.184 269.508L123.026 276.426L123.193 277.033Z" fill="#9897F9" fill-opacity="0.5"/>
<path id="Vector 65" d="M124.145 280.595C124.022 280.718 124.022 280.917 124.145 281.04L126.146 283.041C126.269 283.164 126.468 283.164 126.591 283.041C126.714 282.918 126.714 282.719 126.591 282.597L124.812 280.818L126.591 279.039C126.714 278.916 126.714 278.717 126.591 278.594C126.468 278.471 126.269 278.471 126.146 278.594L124.145 280.595ZM131.286 280.503H124.368V281.132H131.286V280.503Z" fill="#9897F9" fill-opacity="0.5"/>
<path id="Vector 69" d="M94.1789 198.428H94.4933V198.113H94.1789V198.428ZM94.1789 287.421V287.736H94.4933V287.421H94.1789ZM31.6924 287.199C31.5696 287.322 31.5696 287.521 31.6924 287.644L33.6936 289.645C33.8164 289.768 34.0155 289.768 34.1383 289.645C34.2611 289.522 34.2611 289.323 34.1383 289.2L32.3595 287.421L34.1383 285.642C34.2611 285.52 34.2611 285.321 34.1383 285.198C34.0155 285.075 33.8164 285.075 33.6936 285.198L31.6924 287.199ZM86.9462 198.742H94.1789V198.113H86.9462V198.742ZM93.8644 198.428V287.421H94.4933V198.428H93.8644ZM94.1789 287.107H31.9147V287.736H94.1789V287.107Z" fill="#9897F9" fill-opacity="0.5"/>
<path id="Vector 70" d="M188.833 197.17H189.147V196.855H188.833V197.17ZM188.833 345.283V345.597H189.147V345.283H188.833ZM20.2795 345.283H19.965V345.597H20.2795V345.283ZM20.5019 304.809C20.3791 304.686 20.18 304.686 20.0571 304.809L18.0559 306.81C17.9331 306.933 17.9331 307.132 18.0559 307.255C18.1787 307.378 18.3778 307.378 18.5006 307.255L20.2795 305.476L22.0584 307.255C22.1812 307.378 22.3803 307.378 22.5031 307.255C22.6259 307.132 22.6259 306.933 22.5031 306.81L20.5019 304.809ZM164.299 197.484H188.833V196.855H164.299V197.484ZM188.518 197.17V345.283H189.147V197.17H188.518ZM188.833 344.969H20.2795V345.597H188.833V344.969ZM20.594 345.283V305.031H19.965V345.283H20.594Z" fill="#9897F9" fill-opacity="0.5"/>
<path id="Vector 71" d="M24.3676 334.906H24.0531V335.22H24.3676V334.906ZM24.5899 304.809C24.4671 304.686 24.268 304.686 24.1452 304.809L22.1439 306.81C22.0211 306.933 22.0211 307.132 22.1439 307.255C22.2668 307.378 22.4659 307.378 22.5887 307.255L24.3676 305.476L26.1464 307.255C26.2692 307.378 26.4684 307.378 26.5912 307.255C26.714 307.132 26.714 306.933 26.5912 306.81L24.5899 304.809ZM132.229 334.591H24.3676V335.22H132.229V334.591ZM24.682 334.906V305.031H24.0531V334.906H24.682Z" fill="#9897F9" fill-opacity="0.5"/>
<path id="Vector 72" d="M102.82 253.774V253.459H102.505V253.774H102.82ZM102.82 292.138V292.453H103.134V292.138H102.82ZM31.6924 291.916C31.5696 292.039 31.5696 292.238 31.6924 292.361L33.6936 294.362C33.8164 294.485 34.0155 294.485 34.1383 294.362C34.2611 294.239 34.2611 294.04 34.1383 293.917L32.3595 292.138L34.1383 290.359C34.2611 290.237 34.2611 290.038 34.1383 289.915C34.0155 289.792 33.8164 289.792 33.6936 289.915L31.6924 291.916ZM117.764 253.459H102.82V254.088H117.764V253.459ZM102.505 253.774V292.138H103.134V253.774H102.505ZM102.82 291.824H31.9147V292.453H102.82V291.824Z" fill="#9897F9" fill-opacity="0.5"/>
<path id="Vector 73" d="M138.204 287.736V292.138H102.984" stroke="#9897F9" stroke-opacity="0.5" stroke-width="0.628931"/>
</g>
</g>
<defs>
<clipPath id="clip0">
<rect width="15.7233" height="15.7233" fill="white" transform="translate(14.3047 286.164)"/>
</clipPath>
</defs>
</svg>
